/* XPM */
static char *overlay_image__5_1724044285[] = {
/* columns rows colors chars-per-pixel */
"40 40 222 2 ",
"   c #33393D",
".  c #496A2A",
"X  c #4C7327",
"o  c #52702F",
"O  c #587839",
"+  c #252242",
"@  c #2F2341",
"#  c #27264D",
"$  c #332442",
"%  c #3B2B47",
"&  c #343A4A",
"*  c #2A2751",
"=  c #282954",
"-  c #2A2B5A",
";  c #333751",
":  c #2A2E61",
">  c #2C3066",
",  c #2D326A",
"<  c #38316D",
"1  c #2F3871",
"2  c #373A76",
"3  c #482642",
"4  c #532843",
"5  c #5C2943",
"6  c #622A44",
"7  c #6B2B44",
"8  c #673048",
"9  c #723249",
"0  c #7C3A4E",
"q  c #34437A",
"w  c #445343",
"e  c #5D7146",
"r  c #607447",
"t  c #803D50",
"y  c #864456",
"u  c #8D4A59",
"i  c #934E5C",
"p  c #96515E",
"a  c #4B870B",
"s  c #51940C",
"d  c #598B1C",
"f  c #4E9419",
"g  c #5A9617",
"h  c #5D941B",
"j  c #639E0C",
"k  c #648A19",
"l  c #639D13",
"z  c #62951D",
"x  c #699719",
"c  c #649B1B",
"v  c #709C1C",
"b  c #5EA107",
"n  c #5CA418",
"m  c #66A709",
"M  c #70B00F",
"N  c #77B70C",
"B  c #69A715",
"V  c #65AA16",
"C  c #63A41A",
"Z  c #6BA51C",
"A  c #62AA1B",
"S  c #6DAC1C",
"D  c #74AC15",
"F  c #75A51A",
"G  c #74AB1C",
"H  c #69B21B",
"J  c #75B214",
"K  c #7BB416",
"L  c #7CBC14",
"P  c #73B21B",
"I  c #7BB41C",
"U  c #72BC18",
"Y  c #7DBA1D",
"T  c #5B8826",
"R  c #579825",
"E  c #5A8339",
"W  c #5C9831",
"Q  c #638B26",
"!  c #649323",
"~  c #6B9E23",
"^  c #639728",
"/  c #6C9D2B",
"(  c #729C27",
")  c #658C37",
"_  c #689637",
"`  c #6D9B33",
"'  c #759F33",
"]  c #719B3A",
"[  c #64A723",
"{  c #6CA325",
"}  c #6DAB22",
"|  c #6CA32B",
" . c #74A524",
".. c #7AA626",
"X. c #73AB24",
"o. c #7BAC24",
"O. c #73A42B",
"+. c #74AB2A",
"@. c #7AAC2B",
"#. c #6CB024",
"$. c #75B323",
"%. c #7AB324",
"&. c #7CBA25",
"*. c #7BB32C",
"=. c #7BB828",
"-. c #6EA632",
";. c #6BA439",
":. c #73A533",
">. c #74AB33",
",. c #7BAD33",
"<. c #75A33B",
"1. c #78A739",
"2. c #7CAA3C",
"3. c #7DB233",
"4. c #7BB733",
"5. c #7EB23B",
"6. c #7BC20D",
"7. c #68904A",
"8. c #759B41",
"9. c #78A746",
"0. c #7DAB43",
"q. c #75A949",
"w. c #7EB347",
"e. c #81BC09",
"r. c #84B51B",
"t. c #84BB1C",
"y. c #88BC19",
"u. c #83AE29",
"i. c #83BC25",
"p. c #88B827",
"a. c #83B42C",
"s. c #83BC2C",
"d. c #93BA26",
"f. c #82AD34",
"g. c #82AC3C",
"h. c #82B433",
"j. c #8AB633",
"k. c #85BA33",
"l. c #8CBD34",
"z. c #82B33C",
"x. c #8AB43C",
"c. c #85BA3A",
"v. c #8BBB3C",
"b. c #9DBF32",
"n. c #A1BE3E",
"m. c #83C31B",
"M. c #89C61B",
"N. c #91C518",
"B. c #8CC324",
"V. c #87C429",
"C. c #8BC22B",
"Z. c #95C828",
"A. c #8BC333",
"S. c #8DC13B",
"D. c #91C533",
"F. c #94CA36",
"G. c #9DCB34",
"H. c #93C33B",
"J. c #9BCC3A",
"K. c #9CD037",
"L. c #A3D43C",
"P. c #83AB42",
"I. c #88AA47",
"U. c #84B444",
"Y. c #8BB543",
"T. c #86BB46",
"R. c #8BBC43",
"E. c #84B24A",
"W. c #8DB54C",
"Q. c #8CBD4C",
"!. c #92BA48",
"~. c #84A952",
"^. c #90AF52",
"/. c #89B557",
"(. c #8CBB55",
"). c #8BBA5B",
"_. c #94B955",
"`. c #92BE5C",
"'. c #8CB764",
"]. c #92BE66",
"[. c #8BC246",
"{. c #93C344",
"}. c #9CCA44",
"|. c #95C44C",
" X c #97C849",
".X c #9CCD4A",
"XX c #9AD14A",
"oX c #8CC153",
"OX c #94C352",
"+X c #9AC855",
"@X c #95C35B",
"#X c #9ED256",
"$X c #A1CE48",
"%X c #A4D155",
"&X c #A5D556",
"*X c #97C763",
"=X c #A1CC66",
"-X c #A7D664",
";X c #A9D272",
":X c #B1D97B",
">X c #433986",
",X c #463D89",
"<X c #364783",
"1X c #364982",
"2X c #384A87",
"3X c #394B8A",
"4X c #3B548F",
"5X c #3C5393",
"6X c #3E5B97",
"7X c #494189",
"8X c #504B95",
"9X c #4F5499",
"0X c #42659F",
"qX c #69619D",
"wX c #5B5BA2",
"eX c #4469A6",
"rX c #4872AF",
"tX c #4A79B5",
"yX c #696DB1",
"uX c #787AB6",
"iX c #5593CD",
"pX c #ADA9C7",
/* pixels */
"+.c.+X=X;X=X^.W.|.H.d.t.B.B.K Z z T ^ ) X X X T q.Q.XX}.x.2.g.P.T.v.3.%.Z Z V C ",
"O.P.].;X:X;XOXx.j.p.r.r.B.M.L M g d W ) E E E W :.T..X}.!.v.x.v.{.S.k.a.%.Z { Z ",
"` <.(.=X-X-X|.j.( (  .o.a.Y N N l g R ) _ 7._ / O.f.v.!.R.R.{.H.D.C.i.I %.X.X.X.",
"` 9./.#X&X%X{.x.O.(  .@.*.%.L J B V ^ ` ] q.9.9.,.,.a.k.v.{.|. XD.i.t.I $.%.+.$.",
"] I.`.%XL.L.G.!.W.U.h.,.z.5.*.I U J #.>.q.w.'.].Q.x.a.a.H.|.*X_.v.i.P D G ..+.>.",
"9.I.*X+XL.L.$X+X+X_.j.h.U.w.4.=.U &.4.4.w./.].*XOXv.o.u.l.|.`.(.k.%.G D G Z +.*.",
"~./.].].!.!.$X$X$XJ.l.h.5.,.+.$.+.>.w.w.).'.'.'.E.g.@.u.h.k.Q.U.3.X.K K K J P I ",
").oX).`._._.$XL.G.G.D.h.,.:.+.O.-.1.w.'.*X'.'.q.<.' ' :.@.a.k.k.*...o.G J D K t.",
"@XoXT.E./._.$XL.N.y.l.f. .~ ) & + 1X<X- 2 <X2 w . Q 7.] O.o.m.i.5.0.:./ z l X.4.",
"|.[.5.5.E.R.G.Z.y.y.j.h. .& 0X: : 5X5X- 2X5X3X= 0X= o _  .G Y i.3.1.<./ T h O.z.",
"*.>.3.3.f.a.d.N.y.r.j.g.& rX5X6X= 1 1 - 1 1 : : 8XeX0X  ~ Z F Z Z ..,.O.z ! | 3.",
"} +.,.*.o.I i.r.y.p.a.: : 5X5X, + + + + + + + = <X5X<X= + ~ /  . . .@.O.z v o.s.",
"%.$.+.%.r.r.u.u.u.u.  iXq : , + + 7 7 + $ 7 6 + = : - tX1 ' <.1.1.>...F F F s.C.",
"=.=.=.a.r.r.f.g.x.x.: 8X6X# + 3 3 u y + 4 p t + + + <X3XrX& 9.P.0.,. .F v ( a.a.",
"&.s.A.C.t.d.Y.W._.r > , , + 5 5 3 p u + 4 p y + 7 + # , , - P.2.,.+...! Q o Q ' ",
"$.=.A.S.l.l.!.|.%Xr > @ + @ i 5 3 p i + 4 p u + 9 7   # > : 0.g.a.a.( Q k o ) 7.",
"{ O.k.H.v.H.J.}.$XO eXtX- 4 i 5 3 p i + 4 p u + y p + 4XtX- ,.z.S.S.z.` T O 7.7.",
"h ^ 3.S.{.}.K.K.J.e 3X5X- @ i   @ u 9 + @ i 8 + 8 9 + <X9X: 3.T.XXXXR.2.) ) 7.q.",
"T R  .j..X$XG.Z.G.O > > = < 7X,X,X,X,X,X,X,X,X,X,X,X# > , - 0.Q.-X&X#X|.z.2.~.U.",
"T T O.h.W.{.N.M.M.@.* = + wXyXyXyXyXyXyXyXyXuXpXpXyX< # # ; w.W.*X&X#X.X{.v.v.v.",
"^ :.3.*.:.O.K K J . 0XrX- ,X8X8X8X8X8X8X8X8X8XqXqX8X< 6XrX: 2.z.T.[.OXXX}.F.B.C.",
"| >.@...^ ~ D N D . 3X5X- + + # + + # + # + + + + # + <X5X: Y.z.5.w.[.OXXXK.B.C.",
"{ { c c ~  .&.m.L . > > = 4 9 5 3 9 7 + 4 9 7 + 7 7 + : > : _.^.c.c.[.oX#XXXA.D.",
"+.{ z h { %.t.m.6.! = = + 4 p 5 3 p p + 4 p u   u i + * = ; `._.[.S.S.T.XX XS.v.",
"3.>.-.| X.I L 6.6.X 5X0X- 3 i 4 3 p i + 4 p u + u i + 4XeX: ^._.}.F.k.4.T.T.4.2.",
"4.4.:.+.P P J U 6.X 3X5X- + u + + y 6 + + u 5 + 5 6 + <X5X- _.!.J.A.%.+.4.4.@.O.",
"$.$.| | B m B P 6.. <X2X- 7X8X8X8X8X8X8X8X8X9XqXqX8X* 2 2X> n.b.d.I Z S &.&.%.X.",
"V.Y +.Z j b V H U h # = + wXyXyXyXyXyXyXyXyXuXpXpXyX< # # 3 b.d.y.D l c Y Y D F ",
"F.B.%.C m b n V V . iXiX- >X,X,X,X>X>X>X7X,X,X7X7X7X< rXiX: d.d.m.J k Q F F x k ",
"H.D.k.=.B m C C V . 2 2X= + $ +   @ @ + + $ @ + @ $ + q 4X> h.i.t.P R Q ..u.k Q ",
",.T.+XXX&.P H S { T = = + 4 t 5 3 0 7 + 4 0 7 + 7 7 + # # ; 5.=.Y G ~ O.p.a.' ( ",
"] E.=X#X[.4.A.=.+.  1 <X+ + % + + % % + + % % + % % + > <X: O 4.$.P  .+.a.j...O.",
"1.E.@X*X*X@X.X}.S.4.@.+.( :.2.v.G.G.N.e.M m s b n n n n [ { } #.P $.>.>.,.+. .@.",
"2.5.[.OX`._.OX X{.z.g.] ,.5.z.v.b.B.y.N M b f f n H [ n c l V S S } >.1.>.O...%.",
"*.*.S.c.] ) ) P.P.P._ ] 3.k.2.>.o.P X.$.U H R f n V A A j j m M B [ -.;.;.>.*.@.",
"X.#.=.*.Q Q ) 8.P.P.8.] 3.k.:.| c l c C H A R R n V P #.F M N N D [ +.;.;.>.4.4.",
"} C { ..,.P.I.~.I.Y.P.0.,.@.>.| z g a a f f R W [ H %.=.i.B.M.m.L P #.q.q.q.4.4.",
"F C l v z.W.^.^.^.I.Y.x.h.*.+. .v k a a f f W ;.} G X.+.C.B.V.m.M.m.=.4.q.w.[.4.",
"P C g z 9.~.W.W.I.g.!.!.S.l.Y I u.( Z x R _ ] <.+.{ g c } &.#.&.M.M.M.A.T.oXT.w.",
"B B g k 8.~.W.!.I.g.v.H.{.D.m.t.p.j.u...( ` ] 1.3.} h f h A n U &.M.M.V.[.oXoXT."
};
