/* XPM */
static char *overlay_image__6_1724044305[] = {
/* columns rows colors chars-per-pixel */
"40 40 234 2 ",
"   c #35453A",
".  c #4A553A",
"X  c #4B5C3C",
"o  c #4C762A",
"O  c #547829",
"+  c #4D6734",
"@  c #557A37",
"#  c #252241",
"$  c #2A2341",
"%  c #27254B",
"&  c #29254A",
"*  c #312643",
"=  c #3B2542",
"-  c #333A4C",
";  c #282750",
":  c #292955",
">  c #2A2C5C",
",  c #2E3157",
"<  c #2B2E64",
"1  c #362F66",
"2  c #2C3067",
"3  c #2C3169",
"4  c #37306A",
"5  c #323E78",
"6  c #422642",
"7  c #4F2743",
"8  c #562F48",
"9  c #6C2B44",
"0  c #33417D",
"q  c #495A43",
"w  c #535D49",
"e  c #794556",
"r  c #697B52",
"t  c #8B4C5B",
"y  c #96515E",
"u  c #4B870B",
"i  c #4E970D",
"p  c #598B1C",
"a  c #4E9419",
"s  c #5A9617",
"d  c #5D941B",
"f  c #639E0C",
"g  c #648A19",
"h  c #639D13",
"j  c #62951D",
"k  c #699719",
"l  c #659A1A",
"z  c #709C1C",
"x  c #5EA107",
"c  c #5CA418",
"v  c #63A60B",
"b  c #69A809",
"n  c #70B00F",
"m  c #78B60B",
"M  c #74BD0B",
"N  c #65A416",
"B  c #68A515",
"V  c #65AA16",
"C  c #6BAB15",
"Z  c #63A41A",
"A  c #6BA51C",
"S  c #62AA1B",
"D  c #6DAC1C",
"F  c #74AC15",
"G  c #75A51A",
"H  c #74AB1C",
"J  c #6AB31B",
"K  c #75B214",
"L  c #7BB416",
"P  c #72BB16",
"I  c #7BBC14",
"U  c #73B21B",
"Y  c #7BB41C",
"T  c #7DBA1D",
"R  c #5B8827",
"E  c #579825",
"W  c #5A8339",
"Q  c #5C9831",
"!  c #638B27",
"~  c #649323",
"^  c #6B9E24",
"/  c #639728",
"(  c #6C9D2B",
")  c #729C27",
"_  c #668D38",
"`  c #6D9B33",
"'  c #689738",
"]  c #759F33",
"[  c #719B3A",
"{  c #62A322",
"}  c #6CA325",
"|  c #67AB25",
" . c #6DAB22",
".. c #6DA22C",
"X. c #74A524",
"o. c #7AA626",
"O. c #73AB24",
"+. c #7BAC24",
"@. c #73A42B",
"#. c #74AB2A",
"$. c #7AAC2B",
"%. c #6CB024",
"&. c #75B323",
"*. c #7AB324",
"=. c #7CBA25",
"-. c #7BB32C",
";. c #7BB828",
":. c #64A236",
">. c #6EA632",
",. c #6DA43A",
"<. c #73A533",
"1. c #74AB33",
"2. c #7BAD33",
"3. c #75A33B",
"4. c #78A639",
"5. c #7CAB3C",
"6. c #7DB232",
"7. c #7BB733",
"8. c #7EB23B",
"9. c #7BC20D",
"0. c #628348",
"q. c #699545",
"w. c #759B41",
"e. c #6C9251",
"r. c #6CA041",
"t. c #74A444",
"y. c #7AA847",
"u. c #7EB347",
"i. c #7DA55B",
"p. c #81BC09",
"a. c #88BD16",
"s. c #84B51B",
"d. c #84BB1C",
"f. c #89BA1C",
"g. c #84AE23",
"h. c #82AD2B",
"j. c #83BC25",
"k. c #88B827",
"l. c #83B42C",
"z. c #83BC2C",
"x. c #94BE22",
"c. c #82AD34",
"v. c #83AB3C",
"b. c #82B433",
"n. c #8AB633",
"m. c #85BA33",
"M. c #8CBD34",
"N. c #82B33C",
"B. c #8AB43C",
"V. c #85BA3A",
"C. c #8BBB3C",
"Z. c #97B732",
"A. c #83C31B",
"S. c #8AC31C",
"D. c #88C91A",
"F. c #91C518",
"G. c #8CC324",
"H. c #87C429",
"J. c #8BC32B",
"K. c #95C828",
"L. c #8BC333",
"P. c #8DC13B",
"I. c #91C633",
"U. c #94CB35",
"Y. c #9DCB34",
"T. c #93C33B",
"R. c #9BCC3A",
"E. c #9CD037",
"W. c #A0CC2A",
"Q. c #A3D43C",
"!. c #84AB42",
"~. c #88AA47",
"^. c #83B444",
"/. c #8BB543",
"(. c #86BD43",
"). c #8BBC43",
"_. c #84B24A",
"`. c #8DB54C",
"'. c #85B94E",
"]. c #8CBD4C",
"[. c #91BE43",
"{. c #92B84A",
"}. c #84AB55",
"|. c #90AF52",
" X c #89B557",
".X c #8CBB55",
"XX c #8CBA5B",
"oX c #94BB54",
"OX c #92BE5C",
"+X c #84AD60",
"@X c #8DB966",
"#X c #92BD66",
"$X c #8BC243",
"%X c #8CC24A",
"&X c #93C344",
"*X c #98C844",
"=X c #9CCA44",
"-X c #95C34C",
";X c #99C44C",
":X c #94CA4D",
">X c #9CCD4A",
",X c #9AD14A",
"<X c #8CC153",
"1X c #94C352",
"2X c #9AC855",
"3X c #95C35B",
"4X c #9ED256",
"5X c #A1CE48",
"6X c #A4D155",
"7X c #A5D556",
"8X c #98C863",
"9X c #A1CC66",
"0X c #A7D664",
"qX c #A9D272",
"wX c #B1D97B",
"eX c #433986",
"rX c #364682",
"tX c #374886",
"yX c #384B86",
"uX c #3A4E8D",
"iX c #3A528A",
"pX c #3C5393",
"aX c #3F5D99",
"sX c #49418C",
"dX c #5B5393",
"fX c #41609F",
"gX c #4468A5",
"hX c #4770AE",
"jX c #4A7AB5",
"kX c #6466AC",
"lX c #7972A5",
"zX c #696DB1",
"xX c #4D81BB",
"cX c #5698D3",
/* pixels */
"#.V.1X9XqX9X.X`.{.R.x.a.G.G.L A j R / _ @ o o R t.].>X=XB.5.v.v.(.C.6.+. .A B Z ",
"@.!.3XqXwXqXoXB.n.l.*.s.G.G.I n s p Q _ W @ R Q 4._.>X>X[./.B./.&XP.m.-.O.H A D ",
"` 3..X9X0X7X;Xn.X.z X.+.g.T m m N d E _ q.' / ( @.c.C.[.C.).&XT.I.J.j.=.*.#.O.O.",
"` t..X9X7X6X&XB.@.) @.$.-.;.I K b B E ` r.t.y.y.2.2.l.m.C.-X-X*XL.G.s.L Y &.#.#.",
"[ y.OX6X5XQ.Q.{.|.^.c.6.N.N.;.&.P U %.#.t.u.@X@X].C.l.l.T.-X3X3XC.j.H F D X.#.2.",
"t.|.OX6XQ.Q.5X5X2X-Xn.b.^.u.6.;.U =.7.u.u. X@X8XoXC.h.g.C.-XOX.Xm.*.H F A  .#.$.",
"}..X#X#XoX{.5X5X5XR.M.m.8.2.-.#.%.1.u.u.XX8X@X@X_.v.$.$.b.m.)._.-.#.F L L L U Y ",
"3X.XXXXXoXoX5XR.Y.Y.M.b.2.<.#.#.1.,.t.i.i.+Xi.i.3.@.] <.$.l.m.m.$.$.+.Y F m L d.",
"3X<X(._.`.1X5XE.K.f.n.c.X.} @.+ q yXfXiX: aXfX; - + ' [ @.*.f.H.N.5.<.^ j l O.7.",
"%X$XN.5._.].R.K.a.f.n.n.X.+ > hX: yXpXyX: pXpX> < jX, [ ) H L j.2.5.3.` p d @.8.",
"1.2.6.6.6.l.x.F.a.f.n.c.$ hXpXpX2 > 3 3 : 3 3 ; yXpXgX; ! A A H H X.<.@.~ d @.b.",
"O.#.$.-.+.Y g.s.f.k.l.$ ; 5 pXtX; # # # # # # # < pXpX< < ( } ) X.X.$.@.l ^ o.z.",
"&.&.#.*.s.L h.h.h.g.h.< hX: 2 ; # # # # # # # # # 3 < yXjX* 4.4.4.2.o.G G o.M.J.",
"=.;.;.l.s.s.c.!.B.B.. fXpXrX$ $ # # # # # # # # # # % aXpX< y.y.y.2.X.G z z l.l.",
"=.=.L.J.k.k./.{.oX{., < 3 ; & 9 7 # # # # # # # # # # 2 2 < X N.2.#.) ~ g O / ` ",
";.;.L.P.J.Z.&X1X6X;X> 1 % # t 9 7 * # # # # # # # # # # ; 2 X N.l.l.o.~ O O W ' ",
"} @.m.T.C.T.R.Q.5XT.> hXgX# y 9 7 = # # # # # # # # # > hXgX. b.L.P.6.` R @ 0.e.",
"d ( 6.C.*X*XR.E.R.I.> pXyX# y 9 7 = # # # # # # # # # : pXuXX ).,X,X).5.` 0.e.y.",
"p R X.m.;X5XY.K.W.U., 3 2 % dXdX# = # # # # # # # # # ; 2 2 q ].0X0X4X-Xv.5.~._.",
"R Q @.b.{.&XS.S.G.H.- : ; 4 zXkX4 = # # # # # # # # # # : : 0.'.8X7X6X>XT.C.(.C.",
"E <.$.l.<.@.L K P K > fXpX1 sXsX& = # # # # # # # # # : gXaX. N.(.].1X:X*XU.G.J.",
"..1.$.@.( ^ F m K n > pXyX# * $ 7 = # # # # # # # # # > pXuXq v.8.^.%X:X,XE.G.J.",
"} ^ l l ^ X.T A.I P > 2 < # y 9 7 = # # # # # # # # # % 3 3 w oXV.V.$X:X4X,XI.P.",
"#.} j j } *.T A.9.P - > ; # y 9 7 = # # # # # # # # # $ > > r OX$XP.(.$X:X:XM.C.",
"7.1.>.} #.*.I 9.9.M : pXyX# y 9 7 = # # # # # # # # # : pXpXw oX*XT.m.7.$X(.6.5.",
"7.-.1.1.H K K P M M > pXyX# e 8 7 = # # # # # # # # # > pXuXw {.R.L.;.O.7.7.#.$.",
";.&.#.} B v C U 9.P > 0 5 : lXlX# = # # # # # # # # # : 5 5 X W.x.Y A D =.=.&.+.",
"=.T #.{ f v V J P J   % # 4 zXkX4 = # # # # # # # # # # & & Z.x.f.K l l Y T H A ",
"Y.G.&.A f x N S J J > cXxX1 eXeX# = # # # # # # # # # : cXcX. x.a.F d R G G k g ",
"T.I.m.;.b v V S V V > rX0 # 8 6 7 = # # # # # # # # # ; tXeXX k.a.U ~ ! o.g.g ! ",
"2._.4X:X=.J D D | V - > : # y 9 $ # # # # # # # # # # # > > @ l.T U ^ @.l.k.) ] ",
"[ _.8X7X$XL.7.;.-.o > 3 > # $ # # # # # # # # # # # # # 3 3 # -.&.U ..$.l.l.$.@.",
"4.^.3X8X8X2X2X*XP.7.$.o.@.<.5.C.Y.W.F.p.n f i x S S c E { | | %.U %.2.1.2.$.X.$.",
"2.u.%X<XXXoX1X*X$XN.4.4.2.5.N.C.I.G.a.L n v i i c S { S l k V D D &.1.3.>.@.#.+.",
"-.1.L.V.[ _ _ !.!.!.[ [ 7.b.8.1.O.U #.&.P J a a c V J S f f b b V } >.,.>.1.-.$.",
"O.&.;.-.) O _ [ !.~.q.[ b.l.1...l h l { J S E Q c S U J F n m m C S >.>.,.4.7.7.",
"D A A #.c.!.~.}.~.~.~.5.2.$.1.( l s u u a E Q Q { U ;.;.j.G.D.A.I U >.,.t.u.7.7.",
"D N h } !.`.|.|.|./._./.b.-.#.X.z g u u u a Q :.| H X.#.J.G.G.D.D.H.;.1.y.u.$X7.",
"H B s g 3.}.{.`.v.B.{.[.C.L.T Y h.) z k E ' [ 3.#.} s l  .;.&.=.D.D.H.H.%X<X%Xu.",
"C h s j w.}.`.{.~.v.C.T.T.L.G.d.k.l.g.o.@.>.[ ] 2. .d a s S c J A.D.D.H.$X<X<Xu."
};
