/* XPM */
static char *gob_down_after1724041164[] = {
/* columns rows colors chars-per-pixel */
"40 40 246 2 ",
"   c #36271A",
".  c #2A3915",
"X  c #37351B",
"o  c #3D3420",
"O  c #562F21",
"+  c #453523",
"@  c #6C3F2D",
"#  c #284114",
"$  c #324C19",
"%  c #37541B",
"&  c #3B551C",
"*  c #3F5A21",
"=  c #5B4A1F",
"-  c #42591D",
";  c #436718",
":  c #477214",
">  c #567C1B",
",  c #51452A",
"<  c #465D21",
"1  c #6F5130",
"2  c #466120",
"3  c #496522",
"4  c #4E6B24",
"5  c #4E6928",
"6  c #516A24",
"7  c #4C7427",
"8  c #567925",
"9  c #55752B",
"0  c #597428",
"q  c #5C7A2B",
"w  c #506834",
"e  c #577835",
"r  c #637B2B",
"t  c #70603A",
"y  c #637D3C",
"u  c #627A44",
"i  c #A5622C",
"p  c #A87B4D",
"a  c #4B870B",
"s  c #53920C",
"d  c #59881B",
"f  c #4E9419",
"g  c #5B9717",
"h  c #5D941B",
"j  c #629E09",
"k  c #63881B",
"l  c #639D13",
"z  c #6B9917",
"x  c #62951D",
"c  c #659A1A",
"v  c #709C1C",
"b  c #5CA418",
"n  c #63A60B",
"m  c #6AA808",
"M  c #71A90D",
"N  c #6EB30F",
"B  c #78B60B",
"V  c #65A416",
"C  c #69A415",
"Z  c #65AA15",
"A  c #6BAB15",
"S  c #63A41A",
"D  c #6BA51C",
"F  c #63AA1B",
"G  c #6DAC1C",
"H  c #74AC15",
"J  c #75A41A",
"K  c #73AC1C",
"L  c #6AB31D",
"P  c #74B214",
"I  c #7BB416",
"U  c #7CBC14",
"Y  c #74B21B",
"T  c #7BB41C",
"R  c #73BA18",
"E  c #7DBA1D",
"W  c #5B8726",
"Q  c #5E842B",
"!  c #589725",
"~  c #5A8337",
"^  c #5C9831",
"/  c #628C24",
"(  c #698A26",
")  c #64832E",
"_  c #69852F",
"`  c #648C2B",
"'  c #72832E",
"]  c #639324",
"[  c #639D22",
"{  c #6B9C24",
"}  c #67952C",
"|  c #6C9C2B",
" . c #739D24",
".. c #75992C",
"X. c #618433",
"o. c #6B8A31",
"O. c #678938",
"+. c #738D31",
"@. c #788A34",
"#. c #689636",
"$. c #6D9B33",
"%. c #749133",
"&. c #729C3B",
"*. c #789938",
"=. c #62A322",
"-. c #6CA225",
";. c #67AB25",
":. c #6DAB22",
">. c #6DA32C",
",. c #74A524",
"<. c #7AA626",
"1. c #73AB24",
"2. c #7BAC24",
"3. c #73A32B",
"4. c #74AB2A",
"5. c #7AAC2C",
"6. c #6CB024",
"7. c #75B323",
"8. c #7AB324",
"9. c #7CBA25",
"0. c #7BB32C",
"q. c #7BB828",
"w. c #6EA632",
"e. c #6BA439",
"r. c #73A433",
"t. c #79A433",
"y. c #74AB33",
"u. c #7BAD33",
"i. c #75A33B",
"p. c #7BA53C",
"a. c #75AA3C",
"s. c #7CAB3C",
"d. c #7DB233",
"f. c #78B533",
"g. c #7DB23A",
"h. c #7DC312",
"j. c #668745",
"k. c #6C9347",
"l. c #719640",
"z. c #769D42",
"x. c #79A544",
"c. c #78A747",
"v. c #7DAB43",
"b. c #77AB4E",
"n. c #7EB347",
"m. c #81BC09",
"M. c #88BD16",
"N. c #84B51B",
"B. c #84BB1C",
"V. c #89BA1C",
"C. c #849B37",
"Z. c #919E39",
"A. c #84AE23",
"S. c #82AC2C",
"D. c #80B424",
"F. c #84BC25",
"G. c #83B42C",
"H. c #83BC2C",
"J. c #8AB928",
"K. c #93BA26",
"L. c #83A437",
"P. c #83AD33",
"I. c #8DA43B",
"U. c #82AC3C",
"Y. c #94A83C",
"T. c #9AAE3F",
"R. c #82B433",
"E. c #8AB633",
"W. c #85BA33",
"Q. c #8CBC34",
"!. c #82B33C",
"~. c #8BB53C",
"^. c #85BA3A",
"/. c #8BBB3C",
"(. c #99BE35",
"). c #A1BE3E",
"_. c #83C31B",
"`. c #89C61B",
"'. c #91C518",
"]. c #8CC324",
"[. c #87C429",
"{. c #8BC32B",
"}. c #94C929",
"|. c #8BC333",
" X c #8DC13B",
".X c #91C633",
"XX c #94CC34",
"oX c #9DCB34",
"OX c #93C33B",
"+X c #9BCC3A",
"@X c #9CD037",
"#X c #A0CC2A",
"$X c #A3D43C",
"%X c #839A55",
"&X c #BB8C57",
"*X c #83AC42",
"=X c #87AA47",
"-X c #90AE4A",
";X c #84B344",
":X c #8AB543",
">X c #86BD43",
",X c #8BBC43",
"<X c #85B24A",
"1X c #8DB44C",
"2X c #85B94E",
"3X c #8CBD4C",
"4X c #91BD43",
"5X c #94B74A",
"6X c #84AB51",
"7X c #8CAA53",
"8X c #91AC56",
"9X c #89B557",
"0X c #8CBB55",
"qX c #8BBA5B",
"wX c #94B955",
"eX c #92BE5C",
"rX c #A3B341",
"tX c #A8B945",
"yX c #B2BE45",
"uX c #A1BC5A",
"iX c #8BB764",
"pX c #93BB65",
"aX c #A4BA71",
"sX c #8BC246",
"dX c #93C344",
"fX c #9CCA44",
"gX c #95C34C",
"hX c #99C34D",
"jX c #96C948",
"kX c #9CCD4A",
"lX c #9AD14A",
"zX c #8CC153",
"xX c #94C352",
"cX c #9AC855",
"vX c #95C35C",
"bX c #9ED256",
"nX c #A1CC48",
"mX c #B9C247",
"MX c #BEC648",
"NX c #A4D155",
"BX c #A5D556",
"VX c #97C763",
"CX c #A2C965",
"ZX c #A7D664",
"AX c #A9D272",
"SX c #B1D97B",
/* pixels */
"4.^.xXCXAXCX0X1XhXOXJ.M.].].I C x W } #.e 7 7 W c.3XnXkX~.s.U.*X>X^.R.5.G D C F ",
"3.;XVXAXSXAXwX~.E.G.N.N.].].U M g d ^ ^ ~ ~ ~ ^ i.>XkXkX4X~.:X/.dX XW.D.2.G D G ",
"$.x.0XCXZXBXhXE.<.v ,.2.9.B.B B V h ^ O.j.^ } ^ 3.u././.,X,XdXOX.X{.F.9.8.8.1.1.",
"$.z.0XcXBXNXdX~...{ 3.5.0.8.E P Z S [ } e.c.c.c.u.d.R.W./.dXhXdX.XF.N.T Y 4.4.4.",
"&.v.eXNXnX$X$X4X0X=XG.d.!.g.q.7.P R 6.y.x.n.iXVX3X^.G.G.OXgXVXeX/.9.Y H G 1.3.y.",
"x.6XvXbX$X$XnXnXcXgXE.R.;X;Xd.q.E 7.q.n.n.9XaXVXwX/.A.9.Q.gXeX0XW.8.K H K K 1.5.",
"6XqXpXpXwXfXhXnXnX+X XR.g.s.4.7.6.y.n.n.qXiXiXiX1XU.u.5.R.^.,X:Xd.2.H I I I I 9.",
"0XvXqX9X0XwXnX$XoXoXQ.R.u.4.3.4.w.a.n.qXvXiXiXb.i.r...t.5.0.W.W.0.5.2.H P H Y B.",
"vXzX>X<X0XwXnX$X'.V.Q.P.,. .>.r.a.b.b.iXVXVX6X&./ / #.&.3.A.B.{.!.x.r.>.c c 1.d.",
"sXsX!.g.<X3XoX}.M.M.E.R.,.{ $.i.a.b.& & $ 7 =X$.k d O.&.| K E 8.d.a.i.} d x 1.g.",
"0.y.d.u.u.G.J.'.M.V.E.U.t.| $.r.u.7 C.rXrX+.X.=Xo./ ` } { D J K K ,.r.3.x x 3.R.",
"1.4.u.0.2.N.N.V.V.J.G.P.t...$...; &.yXMXMXtX+.4 3. .} $. .{ { -.,.,.5.3.x { 2.R.",
"7.7.5.8.N.N.S.S.S.A.S....._ r $ C.tXMXMXMXMX5X+.>  .p.z.&.*.x.p.a.u.2.J J <.J.|.",
"q.7.0.q.N.N.P.*X~.~.S.C...3 @.< +.Y.).mXMXrXY.( 6 @.Q i.x.x.x.v.v.u.,.J v  .G.G.",
"9.[.W.|.V.J.~.1XwX5X/.E.r C.Y.o.r & . I.Y.# < r %.Y._ / p.x.v.*Xu.,.,.] d r #.w.",
"q.q.|..XQ.Q.4XhXnXhX/.P.S.6 6 - _ @.i Z.o.i %.r ; 7 > { i.v.v.g.G.0.3.` 8 8 ~ k.",
"-.3.W.OXOXOX+X+XkXOXA.J v  .*.- _ I.$ tX).6 C.0 e 6Xi.r.3.u.R.^.|. Xd.$.Q e j.k.",
"h | d.Q.dXfX+X$X+X.XF.H z > % $ 0 aX_ . . %X8X6 $ k.v.s.5.5.P.>XlXlX,Xs.#.O.k.z.",
"W ! 3.W.hXkX}.}.}.XXXX].d 0 @.r - 0 @.I.Z.+.3 2 o.@.) :X!.s.v.3XZXZXbXsX*Xs.n.<X",
"W W 3.R.4XdX].'.`.}.}.D.r T.*._ r & +.r q q 2 _ Y.MX8 :X;Xv.n.1XcXZXNXkXdX/.^.>X",
"^ w.0.G.r.3.I B R P P . T._ 6 ; ) ) & & - - ( ) I.MX' z.<X:XU.!.>X3XxXlXjXXX].{.",
">.y.5.3.{ { H P N A : MXMX-X; - C.I.) 3 4 o.Y.%.0 T.+.$ <X:X:XU.g.;X3XxXlX@X].{.",
"-.{ c c { ,.E _.U U : @.X r Q Q.$ %.C.0 0 C.+.$ %.5 C.$ :X5XwX0X^.^.sXzXbXlX.X|.",
"1.-.x x -.8.E _.h.H 1 , - { R.Q.{   ; q q <   *.hX-X0 rX6 5XwXwXsX X XsXlXjX X/.",
"f.y.w.>.1.T U h.l 1 1 = r z { } 5 o       +   r ~.2 T.T.0 8X8XuXfX.XW.g.sX>Xd.s.",
"d.f.y.3.Y Y P z i = j c [ [ q e $ q   t 1 +   $ O.z.y l.8X8XrX5X+X|.7.1.f.f.4.3.",
"9.7.w.>.l b V 1 p , Z b [ | q Q $ *.# , o . r $ u u pXuXuXtX).(.K.E D G 9.F.T 2.",
"[.E 1.D j a i &Xp k b g [ Q X.5 C.rX. 9 y < 5X' w u %XaXuXtX(.K.M.P c c 9.E K D ",
"XX}.8.F n O O O k L F -.>.X.j.O.. . X.X.` 9 # $ y u =XnX-X=XK.K._.H x W <.J z k ",
".X.XW.q.C n C F F A C D >...y j.O.O._ ` Q ` Q Q q r E./.*XL.P.D.B.P ] / <.T k / ",
"p.>XcXjXH.R L G G Z m j h / ) e @.%.( k > 8 8 W 0 c >.>.y.f.R.d.E K { >.G.J.3...",
"&.<XCXbXsXf.W.9.4.A m m k ! $.u.C.I.J z d d d d C S ! ! >.y.f.f.7.Y ,.5.G.G.<.t.",
"i.;XvXvXVXcXlXjX Xf.5.4.3.r.s./.oXoX'.m.M n s n b Z b b =.;.;.6.7.7.y.y.y.u.,.5.",
"u.n.zXxXqX0XxXjXsX^.s.&.u.s.!./.{.].M.U N n f f b Z ;.b c S F G K 1.y.a.y.4.,.8.",
"0.0.|.^.$.O.*.z.*X*X#.&.d.R.s.y.2.K 1.7.R L ! f b Z Z b j j m m C ;.>.w.w.3.0.0.",
"1.6.q.0.} _ O.*.*X*X&.*.R.R.y.>.c l [ S L b ! ! b L L 6.H M B B A F w.e.e.a.W.f.",
":.S D 4.u.=X6X7X-X:X=Xp.0.5.y.>.x d a a f ! ! ^ ;.G 7.q.J.].`._.M.R 6.c.c.c.f.f.",
"G V c  .!.1X1X8X-X=X1X:XR.0.0.-.v x s a f f ^ e.:.K 1.1.{.{.[.`.].h.q.f.b.n.>Xf.",
"K C g x z.6X-X-X*XI.4X4X X|.E T <. .v c ! } #.e.4.:.h c :.7.7.9.[.`.`.|.sXzXsXn.",
"H l s x x.6X1X5X=XU.:XOXOX|.].N.J.E.A.2.>.$.i.i.y.:.h f g F F L _.`.`.9.>XzXzX2X"
};
