/* XPM */
static char *goldshitnew1724041210[] = {
/* columns rows colors chars-per-pixel */
"40 40 233 2 ",
"   c #4C762A",
".  c #547A2E",
"X  c #4B870B",
"o  c #4E970D",
"O  c #598B1C",
"+  c #4E9419",
"@  c #5A9517",
"#  c #5D941B",
"$  c #639E0C",
"%  c #648A19",
"&  c #639D13",
"*  c #62951D",
"=  c #699719",
"-  c #659A1A",
";  c #709C1C",
":  c #5EA107",
">  c #5CA418",
",  c #63A60B",
"<  c #69A708",
"1  c #71A70D",
"2  c #6EB30F",
"3  c #77B70C",
"4  c #64A416",
"5  c #68A515",
"6  c #66AA15",
"7  c #6BAB15",
"8  c #64A51A",
"9  c #6BA51C",
"0  c #62AA1B",
"q  c #6DAC1C",
"w  c #74AC15",
"e  c #75A51A",
"r  c #73AC1C",
"t  c #6AB31B",
"y  c #75B314",
"u  c #7BB416",
"i  c #77BC15",
"p  c #73B21B",
"a  c #7BB41C",
"s  c #7EBB1E",
"d  c #5B8827",
"f  c #589725",
"g  c #5A8339",
"h  c #5C9831",
"j  c #648C26",
"k  c #639324",
"l  c #6B9E24",
"z  c #64972A",
"x  c #6C9D2A",
"c  c #739D24",
"v  c #769A2A",
"b  c #668D38",
"n  c #689637",
"m  c #6D9B33",
"M  c #719B3A",
"N  c #769F38",
"B  c #62A322",
"V  c #6BA325",
"C  c #67AB25",
"Z  c #6DAB22",
"A  c #6DA32C",
"S  c #74A524",
"D  c #7AA626",
"F  c #73AB24",
"G  c #7BAC24",
"H  c #73A42B",
"J  c #74AB2A",
"K  c #7AAC2B",
"L  c #6CB024",
"P  c #75B323",
"I  c #7AB324",
"U  c #7CBA25",
"Y  c #7BB32C",
"T  c #7BB828",
"R  c #64A236",
"E  c #6EA632",
"W  c #6DA43A",
"Q  c #73A533",
"!  c #7BA533",
"~  c #74AB33",
"^  c #7BAC33",
"/  c #75A33B",
"(  c #77A73C",
")  c #7CAB3C",
"_  c #7DB232",
"`  c #79B633",
"'  c #7DB23A",
"]  c #7CC112",
"[  c #678C4E",
"{  c #699545",
"}  c #759B41",
"|  c #74A444",
" . c #7AA946",
".. c #75A949",
"X. c #7EB347",
"o. c #8DB312",
"O. c #83B41C",
"+. c #84BB1C",
"@. c #88BA1A",
"#. c #98B51C",
"$. c #86AC27",
"%. c #82AD2B",
"&. c #98A528",
"*. c #84BC26",
"=. c #88B827",
"-. c #83B42C",
";. c #82BB2D",
":. c #94B925",
">. c #82AC34",
",. c #84AC3C",
"<. c #82B333",
"1. c #8AB633",
"2. c #85BA33",
"3. c #8CBD34",
"4. c #82B33C",
"5. c #8AB43C",
"6. c #85BA3A",
"7. c #8BBB3C",
"8. c #99BE35",
"9. c #B2AD31",
"0. c #A2BB3B",
"q. c #D1851E",
"w. c #D48A23",
"e. c #DB962E",
"r. c #DE9B33",
"t. c #D5943B",
"y. c #C9AC33",
"u. c #C9AA34",
"i. c #E1A23A",
"p. c #83C31B",
"a. c #8AC31C",
"s. c #88C91A",
"d. c #91C613",
"f. c #8CC324",
"g. c #87C429",
"h. c #8BC22B",
"j. c #94C729",
"k. c #8BC333",
"l. c #8DC13B",
"z. c #91C533",
"x. c #9CCA35",
"c. c #93C33B",
"v. c #97CB38",
"b. c #9BD139",
"n. c #A6CF36",
"m. c #A5C938",
"M. c #84AB42",
"N. c #87A947",
"B. c #8AAE44",
"V. c #98AE45",
"C. c #83B444",
"Z. c #8BB543",
"A. c #86BD43",
"S. c #8BBC43",
"D. c #84B24A",
"F. c #8EB54C",
"G. c #85B94E",
"H. c #8DBD4C",
"J. c #91BE43",
"K. c #95B848",
"L. c #84A952",
"P. c #90AF52",
"I. c #89B557",
"U. c #8CBB55",
"Y. c #8BBA5B",
"T. c #94BC55",
"R. c #B1B84B",
"E. c #B2BB4E",
"W. c #A9BB58",
"Q. c #8CB764",
"!. c #92BE66",
"~. c #DDA34A",
"^. c #D8A55B",
"/. c #C8BB54",
"(. c #E8AD43",
"). c #ECB44A",
"_. c #F1BD53",
"`. c #C4BF7F",
"'. c #DBB174",
"]. c #E0BA7C",
"[. c #8BC243",
"{. c #8CC24A",
"}. c #93C344",
"|. c #9BCA43",
" X c #95C44C",
".X c #97C849",
"XX c #9CCD4A",
"oX c #9AD14A",
"OX c #8CC153",
"+X c #94C352",
"@X c #9BC756",
"#X c #95C35B",
"$X c #9ED256",
"%X c #A1CD44",
"&X c #A2CC49",
"*X c #AFCE4F",
"=X c #A5CB58",
"-X c #B7C258",
";X c #A6D458",
":X c #97C763",
">X c #A4CC67",
",X c #B9C764",
"<X c #A7D664",
"1X c #B6D468",
"2X c #AECE76",
"3X c #A9D272",
"4X c #DAC75C",
"5X c #F5C459",
"6X c #CEC770",
"7X c #E5CD66",
"8X c #FBCF63",
"9X c #FDD266",
"0X c #FFD569",
"qX c #FDD673",
"wX c #F7D27A",
"eX c #FFDA79",
"rX c #B4C784",
"tX c #BDC993",
"yX c #C9C489",
"uX c #C8D188",
"iX c #D6D48B",
"pX c #C5CD9B",
"aX c #CAD29A",
"sX c #F2D999",
"dX c #D0D3A7",
"fX c #FFEAB4",
"gX c #DAE5C8",
"hX c #FFEEC4",
"jX c #FFF0CB",
"kX c #FFF4D6",
"lX c #FFF6DF",
"zX c #FFF8E5",
"xX c #FFFFFF",
/* pixels */
"J 6.@X>X3X>XU.F. Xc.:.+.f.f.u e # d z n .     d | H.XX|.5.,.) M.A.7._ J 9 9 8 8 ",
"H M.:X3X2X3X+XZ.1.=.*.O.f.a.i 1 @ O n g g g g h ! D.XXXXS.Z.5.7.}.l.2.*.F r 9 q ",
"m / U.:X1X<X X>.v ; S G U +.3 3 4 @ f h { h h h H >.7.}.S.S.}.c.c.f.*.s I F F F ",
"m | U.=X;X*X|.5.H c H K K U u y 6 6 z m { | ....^ ^ -.2.7.}. X.Xz.*.+.p a P K J ",
"M  .#X=Xn.n.oX XP.Z.^ _ C.' T P y p L ~ ( X.X.rXH.7.Y =.8. X#X#X7.*.r e r V J ~ ",
"| D.#X=Xb.b.|.XX@X X1.<.C.C._ T p U T X.X.X.Q.rXT.7.$.$.7. XY.U.6.U w w e r J Y ",
"L.Y.!.!.T..XXX&X%Xv.3.<.' ^ K F L ~ X.X.Q.Q.Q.!.D.,.,.K <.6.H.Z.Y G y u y u p s ",
"Y.OXY.I.U.T.&Xm.m.x.3.<.^ ~ J J ~ ( X.Y.:X:XX.../ H gX! K T 2.2.K K G r w y u +.",
"@X+XC.D.U.T.%X9.y.#.=.>.S l m N N.W.W.,X,X,XE.N.j j b N ! =.m.9.,.) Q l - - F _ ",
"{.{.' ' D.H.x.y.r.#.1.<.S l >.E.4X_.(.9X0X0X0X4XR.j b M v y.0Xy.>.( / m O # H ' ",
"Y ~ _ _ ^ -.:.#.#.@.1.>.! tX`.i.i.).).0XqXjXjXjXhX6X/.m ; &.0.-.r S ^ H k * H <.",
"Z J ^ Y G a +.@.@.=.-.>.pXwXt.r.5X8X0XkXzXxXxXxXxXzXkX/.v l x S S S K H * l D ;.",
"I P K I u O.$.>.$.$.$.pXqXw.e.9X0X0XkXxXxXxXxXxXxXxXxXzX4X/ / ) ( ) G e ; D =.h.",
"T T Y T @.O.>.,.5.5.pXwXw.q.r.0X0XjXxXxXxXxXxXxXxXxXxXxXzX/. .M.) ) e ; ; D -.-.",
"U U k.h.=.=.5.V.u.T.yXt.q.w.0X0XqXkXxXxXxXxXxXxXxXxXxXxXzX6XN.M.^ F v = % . b m ",
"T T k.c.3.3.}. X+XpX^.q.q.i.0X0XfXxXxXxXxXxXxXxXxXxXxXxXxXjXE.4.;.Y v = . . b n ",
"Z H 2.c.7.c.v.b.>XiX~.q.w.0X0X0XfXxXxXxXxXxXxXxXxXxXxXxXxXjX4XJ.l.l._ m d . [ { ",
"f z -.7..X|.b.n.1XsXi.q.q.0X0X0XfXxXxXxXxXxXxXxXxXxXxXxXxXjX0X-XoXoX[.) b [ [ ..",
"O d H 2..X&Xx.j.1X].w.q.q.9X0X0XfXxXxXxXxXxXxXxXxXxXxXxXxXjX0X-X>X<X$X{.,.)  .D.",
"d d H <.K.}.a.a.=X'.q.q.w.9X0X0X0XjXxXxXxXxXxXxXxXxXxXxXlX0X0X-X$X;X;XXXc.7.7.7.",
"z Q _ ^ ! H y u W.'.w.q.q.8X9X0X0XjXxXxXxXxXxXxXxXxXxXxXkX9X9X&XA.U. XoXoXz.f.h.",
"C ~ K D z l w 3 +X].w.q.q.w.9X0X0X0XhXxXxXxXxXxXxXxXxXkX0X_.(.R.' ' {.+XoXb.f.f.",
"V V - - l S +.p.=XsXi.q.q.w._.9X0X0X0XhXjXxXxXxXxXkXjX0X8X)._.E.6.l.{.{.oXoXk.c.",
"J V * * 9 I s p.z.uX~.q.q.w.r.9X0X0X0X0X0XfXfXfXfXeX0X0X5Xr.7X,X{.l.l.{.+X.Xk.7.",
"` ~ E A F a i i ] <X^.w.q.q.w.).0X0X0X0X0X0X0X0X0X0X0X9Xr.i.4XT.XXv.2.` [.A.' ) ",
"` Y ~ Q p y y 3 ] ] 2Xt.q.q.q.w.e._.0X0X0X0X0X0X0X0Xr.e.t.yXW.K.v.k.P S 2.` K J ",
"T P J A 4 < t p ] 2 2XsXw.q.q.q.q.w.w.8X0X0X0X0Xi.w.q.w.wXaX8.8.f.O.9 9 U U I F ",
"*.s J 8 $ , 8 t p y 5 tXqXw.q.q.q.q.q.q.q.q.q.q.q.q.w.wXdXR.8.:.@.y - * P s w e ",
"v.f.P q , : 4 0 0 t 9 V pXwXt.q.q.q.q.q.q.q.q.q.q.t.wXdXK.V.1.:.p.3 % j G e = % ",
"c.z.2.Y < , 4 0 6 6 6 9 x tXyX^.~.i.w.q.w.w.i.~.^.yXaX7.V.R.-.=.+.r f j D r % j ",
"^ D.$X.XT t t q q 6 #.1 @ j } rXiXsX].'.'.].sXiX>X! x E ~ ' _ &.O.r l H =.-.v v ",
"Q D.:X$X[.k.2.T Y S @.1 * d x ! -X1X*X&XK.T.F.Y 7 - @ h C ~ ' $.a P S J -.1.D ! ",
"( D.#X#X:X#XoX|.l.` K S H Q ) 7.m.x.d.o.2 : o o t > > f B C C L P P ~ ~ ~ K F K ",
") ' {.+XY.U.+X.XS.A.,./ ) ^ 4.7.j.f.@.3 2 : o + > t 0 0 - 5 7 q q F ~ ( Q H J G ",
"J Y l.6.M b M } ,.,.M M _ 2.) ~ F r F P ] t + + > 0 0 0 & $ < < 8 V E E ~ ~ Y K ",
"J P T Y j j b } M.N.{ M <.-.~ A 8 4 # B t 0 h f > 0 p p 1 1 3 3 7 C C W W ~ _ ` ",
"q 9 9 J ^ M.L.N.B.B.M.) ^ K ~ A * @ X X + + h h C q P T 3.f.s.p.i a C W ....6.Y ",
"q 4 & l C.F.P.P.P.B.D.Z.<.Y J V ; % X X + + h R Z q Z P h.f.g.s.s.p.T ' ..X.[.` ",
"r 8 @ % N L.T.V.N.,.K.J.7.h.*.u %.D ; = k n W W J 9 # # Z U P U s.s.g.g.{.OX{.X.",
"7 & @ = } L.F.F.N.,.7.}.c.k.f.+.=.$.$.G A m M ! ` V # @ @ 0 > t p.s.s.g.{.OXG.G."
};
