/* XPM */
static char *grass1723511169[] = {
/* columns rows colors chars-per-pixel */
"40 40 201 2 ",
"   c #547237",
".  c #5C7635",
"X  c #5D793E",
"o  c #5B8327",
"O  c #5C872A",
"+  c #608629",
"@  c #668D2E",
"#  c #6A8A2C",
"$  c #62932E",
"%  c #6B912E",
"&  c #699A2E",
"*  c #739D2F",
"=  c #658432",
"-  c #6B8733",
";  c #648C33",
":  c #6B8C34",
">  c #638139",
",  c #6D863B",
"<  c #6C8C3A",
"1  c #728F33",
"2  c #728C3D",
"3  c #639535",
"4  c #6C9234",
"5  c #669A37",
"6  c #6F9C35",
"7  c #66973E",
"8  c #6C923C",
"9  c #679B3D",
"0  c #6E9A3A",
"q  c #739534",
"w  c #729C33",
"e  c #7B9B35",
"r  c #74943C",
"t  c #7A933E",
"y  c #759B3A",
"u  c #7A9C3C",
"i  c #6EA135",
"p  c #75A335",
"a  c #7BA436",
"s  c #77A837",
"d  c #7DA936",
"f  c #76A43A",
"g  c #7CA43B",
"h  c #76AA3B",
"j  c #7DAB3B",
"k  c #7DB23C",
"l  c #648243",
"z  c #6D8C44",
"x  c #758446",
"c  c #748C43",
"v  c #6C9543",
"b  c #6C9B41",
"n  c #749443",
"m  c #7A9644",
"M  c #759941",
"N  c #7C9C42",
"B  c #71934B",
"V  c #7B964B",
"C  c #779E4A",
"Z  c #7C9C4A",
"A  c #6A8451",
"S  c #759158",
"D  c #74A046",
"F  c #7DA343",
"G  c #7FA842",
"H  c #7DA349",
"J  c #7EA252",
"K  c #819E3D",
"L  c #81AD36",
"P  c #82A53D",
"I  c #8AA53B",
"U  c #83AC3C",
"Y  c #8BAD3E",
"T  c #87B137",
"R  c #88B036",
"E  c #85B23B",
"W  c #8BB43D",
"Q  c #85BA3C",
"!  c #8BBB3C",
"~  c #92B53E",
"^  c #93BB3D",
"/  c #8FC13E",
"(  c #839E41",
")  c #829E4D",
"_  c #889E4A",
"`  c #8B9D53",
"'  c #82A544",
"]  c #89A544",
"[  c #84AB42",
"{  c #8AAC44",
"}  c #83A34B",
"|  c #8AA44D",
" . c #84A94A",
".. c #8BAC4C",
"X. c #93AF45",
"o. c #91AF4C",
"O. c #86B241",
"+. c #8BB343",
"@. c #8EBA43",
"#. c #86B149",
"$. c #8DB34A",
"%. c #92B445",
"&. c #99B347",
"*. c #94BC44",
"=. c #99BE44",
"-. c #93B54C",
";. c #93BA4B",
":. c #9ABC4C",
">. c #84A352",
",. c #8BA553",
"<. c #85AA53",
"1. c #8CAB53",
"2. c #81A059",
"3. c #8DA55A",
"4. c #8DAB5B",
"5. c #91A656",
"6. c #93AC54",
"7. c #90A35F",
"8. c #95AB5C",
"9. c #8DB153",
"0. c #8DB15A",
"q. c #93B353",
"w. c #99B554",
"e. c #95BA52",
"r. c #9BBC53",
"t. c #94B35C",
"y. c #9AB45B",
"u. c #96BC5B",
"i. c #9CBD5C",
"p. c #A1BD44",
"a. c #A3BD4C",
"s. c #A1BD53",
"d. c #A8BD53",
"f. c #A2B75F",
"g. c #A4BD5B",
"h. c #8CAC61",
"j. c #92AE64",
"k. c #99AD62",
"l. c #95B464",
"z. c #99B562",
"x. c #96B867",
"c. c #9CBC62",
"v. c #95B56A",
"b. c #9EB668",
"n. c #97B96D",
"m. c #9CBD6C",
"M. c #98B773",
"N. c #9DBD75",
"B. c #A2BC63",
"V. c #A8BE63",
"C. c #A0B46C",
"Z. c #A4BA6A",
"A. c #A8BA6E",
"S. c #A8BC73",
"D. c #95C242",
"F. c #9BC244",
"G. c #9BCA45",
"H. c #96C04D",
"J. c #9CC34C",
"K. c #97C151",
"L. c #9DC253",
"P. c #9BC05B",
"I. c #A2C740",
"U. c #A3C64D",
"Y. c #A4CB4D",
"T. c #ABCA4D",
"R. c #A4C353",
"E. c #AAC654",
"W. c #A5CA54",
"Q. c #A9CD52",
"!. c #A3C35B",
"~. c #ACC45E",
"^. c #A5CA5D",
"/. c #AACC5C",
"(. c #AED254",
"). c #A7D05F",
"_. c #B1D559",
"`. c #9EC363",
"'. c #A2C464",
"]. c #ABC565",
"[. c #A4CB61",
"{. c #ABCF64",
"}. c #A1C36B",
"|. c #ADC668",
" X c #A6C96E",
".X c #AACB6A",
"XX c #A8D065",
"oX c #ADD16B",
"OX c #B3D463",
"+X c #B5D769",
"@X c #A1C273",
"#X c #AAC372",
"$X c #ACCC72",
"%X c #AFCE7D",
"&X c #B0CF79",
"*X c #AFD370",
"=X c #B5D471",
"-X c #B4D871",
";X c #B5D27D",
":X c #B8D778",
">X c #BAD786",
/* pixels */
"[ -.'.$X&X$Xl.t.g.R.*.^ F.=.T a 4 : n z X     > >.u.{./.-...| 1.q.e.$.{ h a p g ",
"F 1.m.%X>X;XB.w.-.%.+.~ =.D.! L 4 ; < z l l > 8 } e.!.^.w.q.w.w.r.L.;.+.{ a f g ",
"M >.x.$X:X=Xg...u e g Y +.+.! L w 4 8 v B B v y F { ;.r.r.r.r.L.L.F.*.W E U U j ",
"m H z..X+XOXR.-.( u ( [ +.+.W T s f 0 M H J >.<. ...%.-.e.P.!.!.J.=.W T O.{ [ [ ",
"V <.B.oX_.(.!.i.t.t.{ { 9.$.+.E E E G G <.0.v.n.i.-.+.+.r.!.}.c.e.*.Y P P g G  .",
">.4.}..XQ.Q.!.~.].P.-.$.9.0.#.O.Q @.$.#.9.l.N.N.c.w.Y { :.i.m.z.$.+.j d P j U { ",
"4.l.n.m.i.!./././.E.:.$.....{ E [ #.9.0.x.n.M.v.t...] Y $.-.u.q.+.U Y T T W T W ",
"c.`.x.v.z.f././.Q.U.:.-. .G ' [ F H 0.v.`.M.v.h.) N Z ' [ +.;.-.{ [ U U U L U *.",
"`.`.9.0.l.c./.T.F.^ &.-.P y N F H <.h.v.@Xm.4.V : : n Z F Y ^ *.$.>.F u q q g $.",
"`.u.$.$.q.y.W.Y.^ ~ &...K y m Z <.<.<.0.`.g.1.V - = c V u P W @...} H M < 4 F $.",
"#.[ .... .%.=.I.^ ~ &...' ( m ( +.+.P P +.-.y.<.t : 2 r y g a P P P ' N : 4 F $.",
"j G { { Y Y ~ ^ ~ %.%. .( ( c K [ U a a R %.;.w.K r r n u u u g g P Y P q q { @.",
"O.[ { { T W ] ] X.X.] K t 2 X t q p p a L W ^ D.Y [ ) ) Z ) } } } ' Y P e I *.:.",
"@.O.+.+.~ ~ { 1.o.o.] K K 2 x 2 q p j U E W D.D.*.+.' ) ) 2.,.| <.[ P u e K +.*.",
"@.@.;.F.*.%.q.y.V.!.-.o._ _ ` ` { { +.$.-.e.L.L.:.+.g u ) ,.<...{ ' u q = = r M ",
"O.@.K.L.:.:.r.g.].!.w.{ _ _ 5.6.-.%...-.r.c.P.i.r.%.u y F <.<...$.+.( 2 . . l B ",
"g F -.J.:.L.E.Q./.L.Y a e t ,.5.] ] ] | y.'.f.z.l.4.} Z ' [ ..-.L.H...m > X A S ",
"4 y ..r.!.^.W.Q.Q.U.%.P q 1 m _ | | _ ..V.|.i.z.j.h.1. .[ { ..e.^.[.r...c z S ) ",
"= ; u -.!.{.T.Y.Y.Y.Y.*.* # - c ` 8.6.f.|.|.8.5.5.6.q.q.....1.u.*X-XXXP.9.| <.t.",
"; 8 P $.i.r.F.D.D.G.Y.^ P % - 2 7.C.B.d.~.g.6._ | ..q.w.0.9.1.t. X*XOX^.L.r.e.e.",
"n N { $.' ' U T E E L U P a q u k.A.~.~.a.X.K ( _ <.,.4.0.1...$.q.i.`.[.^.U.F.=.",
"F F [ P r y L R L j s d U Y P { y.V.~.R.~ I K ( ,.7.1.5.q.q.q.6.$.9.i.`.).^.G.F.",
"F u q q y P @./ ! Q E d U O.-.r.a.:.:.&.X.] ( | b.B.t.o.q.r.z.z.q.;.P.`.XX).J.L.",
"G g 4 4 f { ^ D./ ! E E U U $.-.&.%.] Y ] ] ] o.g.].s.w.w.y.b.b.P.H.e.K.`.^.;.e.",
"#.[ F F j E ! ! / Q k k a e u g [ [ g a +.-.%.-.L.R.g.y.8.8.k.B.!.W.;.$.e.e... .",
"$.#. .' U E E E / Q k s p y y u Y U a a *.:.;.%.:.r.B.Z.k.8.y.g.R.J.U [ ;.$.[ F ",
"O.O.G f p p j E ! Q s w 0 y [ W E Q E O.r.L.e.q.,.,.C.S.A.g.d.a.=.W d h @.@.O.Y ",
"D.@.[ y * p p k Q k p 0 y F +.-.*.! @.;.K.K.e.1.) ` Z.#XV.g.a.p.^ U q q G / j a ",
"W.F.O.s * * p h j k a f F ' q.;.;.*.+.@.*.;.+.{ ' ..d.^.8.5.&.^ ^ L < < P P q - ",
"R.J.;.@.d p p s s s p a u F | w.r.:.*.*.+.W +.W P ] :.e.| | X.&.^ E 4 < P I 1 - ",
"' q.'.`.@.k k j h s p * % : n } s.T.I.^ L L L L g u u F [  .$.+.W U u u %.%.K u ",
"Z 0. XoXP.;.;.@.{ L d * 4 < r ] s.T.I.^ d p p a a p 4 7 F #.#.#.+.U j ' %.%.' ' ",
"} 0.`. X}. X^.W.K.$.{ [ u F ..e.E.T./ ^ L * & & s h 6 0 f h G j E [ [  .[ [ ' I ",
" .9.u.`.x.x.'.!.r.q. .}  ...9.e.:.F.^ ^ k p $ $ i h f y 6 e h h U G [ H H ' U [ ",
"[ #.H.e.n z V _ 1...V m { ;. .' U U U O.Q k 5 3 i p h a w * d d s y G H G G #.[ ",
"U U +.{ 8 , c ) <.,.V V $.$.' F w q 0 f k h 9 5 p h E L a L R T a h G H H H $.#.",
"h g g [  .<.3.3.6.6.1.| { [ [ M 4 @ O O $ 3 b 0 h j O.+.*.F.*.! ! O.G H J <.e.#.",
"h e q u o.y.y.8.6.6.t.q.$.[ { ' e : + o O ; v D G j P O.;.F.D.D.D.D.O. .<.0.K.#.",
"L p % 4 } 7.y.y.6.6.y.r.r.F.! W I P e q 8 M C H G a 4 4 U O.O.D.G.G.G.H.P.`.u.0.",
"d e % 4 Z h.y.t.,...w.L.L.J.*.W %.&.{ Y M N Z } [ F 4 3 6 f h k D.G.D.@.K.`.u.0."
};
