/* XPM */
static char *gob_left1724041176[] = {
/* columns rows colors chars-per-pixel */
"40 40 246 2 ",
"   c #38261A",
".  c #333B18",
"X  c #493926",
"o  c #5B3625",
"O  c #2A4315",
"+  c #2F4918",
"@  c #334817",
"#  c #334D1A",
"$  c #3A551C",
"%  c #435D1F",
"&  c #4A6C1E",
"*  c #4E562A",
"=  c #764A33",
"-  c #496726",
";  c #4D6923",
":  c #526D25",
">  c #536B29",
",  c #4B742B",
"<  c #567327",
"1  c #577827",
"2  c #5A7629",
"3  c #5C7A2B",
"4  c #597837",
"5  c #6B792C",
"6  c #627D36",
"7  c #7A6B40",
"8  c #627A44",
"9  c #865E3B",
"0  c #A26B2E",
"q  c #9A6846",
"w  c #4B870B",
"e  c #598A0D",
"r  c #51960C",
"t  c #5A891C",
"y  c #4E9419",
"u  c #5B9717",
"i  c #5D941B",
"p  c #629E09",
"a  c #628B1C",
"s  c #639D13",
"d  c #62941D",
"f  c #699718",
"g  c #659A1A",
"h  c #709C1B",
"j  c #5EA107",
"k  c #5CA418",
"l  c #63A205",
"z  c #64A60B",
"x  c #6BA90A",
"c  c #6CAB0C",
"v  c #71AC0E",
"b  c #6EB30F",
"n  c #78B60B",
"m  c #74BD0B",
"M  c #64A415",
"N  c #6AA515",
"B  c #65AA15",
"V  c #6CAB15",
"C  c #64A51A",
"Z  c #6BA51C",
"A  c #63AA1B",
"S  c #6DAC1C",
"D  c #74AC15",
"F  c #73A21B",
"G  c #77A81B",
"H  c #73AC1C",
"J  c #6BB31A",
"K  c #74B214",
"L  c #7BB416",
"P  c #73BB13",
"I  c #7BBC14",
"U  c #73B21B",
"Y  c #7BB41C",
"T  c #71BB1A",
"R  c #7DBA1D",
"E  c #5C8A25",
"W  c #5D832C",
"Q  c #589725",
"!  c #5A8337",
"~  c #5C9831",
"^  c #628C24",
"/  c #64822D",
"(  c #6A842E",
")  c #648B2B",
"_  c #68882A",
"`  c #71832E",
"'  c #639324",
"]  c #6B9D24",
"[  c #6A952D",
"{  c #639828",
"}  c #6C9D2B",
"|  c #749A2A",
" . c #628534",
".. c #638A34",
"X. c #6B8C33",
"o. c #65873E",
"O. c #6C8A3C",
"+. c #738D32",
"@. c #7C8D31",
"#. c #689637",
"$. c #6D9B33",
"%. c #799935",
"&. c #729C3B",
"*. c #62A322",
"=. c #6CA224",
"-. c #67AB25",
";. c #6DAB22",
":. c #6DA32C",
">. c #74A524",
",. c #7AA627",
"<. c #74AB24",
"1. c #7BAC24",
"2. c #73A32B",
"3. c #74AB2A",
"4. c #7AAC2C",
"5. c #6CB024",
"6. c #75B323",
"7. c #7AB324",
"8. c #7CBA25",
"9. c #7BB32B",
"0. c #7BB828",
"q. c #64A236",
"w. c #6EA632",
"e. c #6DA43A",
"r. c #73A433",
"t. c #7AA533",
"y. c #74AB33",
"u. c #7BAC33",
"i. c #75A33B",
"p. c #7BA53C",
"a. c #74A93B",
"s. c #7CAB3C",
"d. c #7DB233",
"f. c #78B533",
"g. c #7DB23A",
"h. c #7BC20D",
"j. c #648446",
"k. c #6A9449",
"l. c #759B41",
"z. c #79A544",
"x. c #7DAB43",
"c. c #78A748",
"v. c #75A949",
"b. c #7EB347",
"n. c #83BD08",
"m. c #88BD16",
"M. c #84B51B",
"N. c #84BB1C",
"B. c #89BA1C",
"V. c #839A37",
"C. c #839B37",
"Z. c #84AE23",
"A. c #82AC2C",
"S. c #80B424",
"D. c #84BC25",
"F. c #83B42C",
"G. c #83BC2C",
"H. c #8AB928",
"J. c #93BA26",
"K. c #84A536",
"L. c #82AC33",
"P. c #8BA33A",
"I. c #82AC3C",
"U. c #94A93D",
"Y. c #98AC3E",
"T. c #82B333",
"R. c #8AB633",
"E. c #85BA33",
"W. c #8DBD34",
"Q. c #82B33C",
"!. c #8BB43C",
"~. c #85BA3A",
"^. c #8BBB3C",
"/. c #99BE35",
"(. c #96C90E",
"). c #83C31B",
"_. c #8AC31C",
"`. c #88C91A",
"'. c #91C518",
"]. c #8CC324",
"[. c #86C328",
"{. c #8BC32B",
"}. c #94C929",
"|. c #8BC333",
" X c #8DC13B",
".X c #91C633",
"XX c #96CB35",
"oX c #9DCB34",
"OX c #93C33B",
"+X c #9BCC3A",
"@X c #9CD037",
"#X c #A2CD2D",
"$X c #A3D43C",
"%X c #839D56",
"&X c #B28752",
"*X c #83AB43",
"=X c #8AAD44",
"-X c #86AA49",
";X c #90AE4A",
":X c #84B344",
">X c #8BB643",
",X c #86BD43",
"<X c #8BBC43",
"1X c #85B24A",
"2X c #8DB54C",
"3X c #85B94E",
"4X c #8CBD4C",
"5X c #92BD44",
"6X c #91B54C",
"7X c #97BA48",
"8X c #84AB52",
"9X c #8CAA53",
"0X c #92AE55",
"qX c #89B557",
"wX c #8CBB55",
"eX c #8BBA5B",
"rX c #95B955",
"tX c #92BE5C",
"yX c #A3B948",
"uX c #B3BE45",
"iX c #A1BC5A",
"pX c #8CB764",
"aX c #92BE66",
"sX c #A2BD69",
"dX c #8BC246",
"fX c #93C344",
"gX c #9CCA44",
"hX c #95C34C",
"jX c #98C749",
"kX c #9CCD4A",
"lX c #9AD14A",
"zX c #8CC153",
"xX c #94C352",
"cX c #9AC855",
"vX c #95C35B",
"bX c #9ED256",
"nX c #A1CC48",
"mX c #B9C247",
"MX c #A4D155",
"NX c #A5D556",
"BX c #97C763",
"VX c #A2C965",
"CX c #A7D664",
"ZX c #A9D272",
"AX c #B1D97B",
"SX c #A7B18C",
/* pixels */
"3.~.xXVXZXVXwX2XhXOXJ.m.].].L Z d E [ .., , , E v.4XnXgX^.s.I.I.>X^.d.3.S Z C C ",
"2.:XBXZXAXZXrX!.R.F.S.M.]._.I v u t ~ ~ ! ! ! ~ i.>XjXkX5X>X!.>XdXOX|.0.1.H Z S ",
"$.z.wXVXCXCXjXR.>.h >.1.S.N.n n M u ~ ..k.#.#.} 2.u.^.5X<X<XfXOX.X{.D.R 6.6.<.<.",
"$.l.wXcXNXMXfX!.2.| 2.,.9.0.R b B M { $.#.v.v.x.u.d.F.E.^.fXhXjX{.H.R Y Y 3.3.3.",
"&.c.tXMX$X$X+X7X6X1XT.d.Q.g.0.6.K U S y.a.b.pXaX4X~.F.F.OXhXvXvX^.8.U D S >.3.u.",
"z.;XBXcX$X$XnXnXcXhXR.T.:X:Xd.6.T 8.f.b.b.qXaXBXrX^.Z.S.W.hXtXwX~.7.G D F S 3.4.",
"8XeXaXaX7XjXjXnXnX+XW.E.g.g.4.6.<.f.b.b.pXpXpXpX1XI.t.4.T.E.4X:Xd.1.L L L L U R ",
"vXwXeXqXeXrXnX$XoXXXW.T.u.r.3.2.w.a.b.eXBXpXpXv.i.r.r.t.,.F.E.E.4.3.1.D K K Y N.",
"vXzX,X1XwXrXnX#X}.B.R.T.>.] 2.r.i., @ @ # , 8X&.^ ^ #.&.2.1.N.[.g.s.r.] g g <.9.",
"dXdXQ.g.1X4XoX}.m.m.R.T.>.] $.i.3 V.Y.U.%.3 3 $.a t O.&.2.H L D.u.s.i.$.t i :.~.",
"9.y.u.d.d.F.H.'.m.B.R.I.t.} } ; C.mXuXY.C.%.1 - +.a ) [ ] Z Z H H >.t.$.E d 2.d.",
"<.3.u.9.1.M.M.M.B.H.F.L.r.%.2 V.mXmX;XP.%.6 ; $ 2.[ [ [ | ] ] 2.>.<.4.>.g ] 1.E.",
"6.6.4.7.L M.A.A.A.Z.A.A.+._ - mXyXP.P.%./ < 5 @.g 4.p.l.&.&.p.p.a.u.<.G F 1.H.{.",
"0.6.9.S.M.M.L.=X!.!.K.| | ` 2 @.@ 3 / 5 : ( C.U.> S.t.i.z.z.c.x.x.u.,.F h | F.G.",
"8.G.|.|.H.H.>X6X7X7X>XR.K.2 V.5 0 P.X.2 ; : 2 # ^ S.F } i.c.x.s.u.,.| ' a 3 [ $.",
"0.0.|.|.{.W.5XhXcXnX!.L.K.@ uXV.Y.P.( 2 ; ; - $ ^.E.] ] p.x.x.Q.F.0.2.' 1 < ! k.",
";.2.R.OXOXOXgX+XnXOXS.F h | - : SX%.5 ; ; $ % ; c.8Xi.r.,.u.d.~. X|.d.$.W 4 j.k.",
"Q { 9.^.fXgX@X$X@X.XS.D p a 3 @.%.X._ % @ ( U.P.> 8Xx.s.4.4.d.>XlXlX<Xs.#.o.k.c.",
"t E 2.E.jXkX}.}.}.@XXX[.f e 1 3 ( 1 + $ < ` U.uXP.O >X:XT.s.*XwXCXCXbXfXQ.s.c.1X",
"E ) 2.T.5XfX].'.`.[.}.H.v f t 1 4 # 3 +.P.3 +.U.K.- X.4X:Xb.*X3XcXCXbXkXfX^.^.^.",
"~ w.d.A.r.2.L K K U K K D F f | %X& C.Y.C.3 # %.+./ > -X1X=XQ.Q.,X4XxXlXlXXX].{.",
":.3.,.3.} ] D n K c x V Y H <.A.=X3 +.+._ < ; # %./ , -X1X>X>XI.g.Q.4XxXlX@X].{.",
"=.] g g ] >.D.).I P b S U 9.R.W.K.. 5 2 ; ; @ P.P.+ =X!.!.7X6XwX,X~.dXzXlXlX.X X",
"3.:.i g :.4.h.).h.P P U <.3.T.@.= o X X     . U.Y.O 7X>X5X0XrXtXdX|.dX,XlXhXW.^.",
"f.y.w.:.6.7.I h.h.m b J S =.> 9 q   7 *     * % ` 6 7X7X9X9X0XiXgXOXE.d.dX,Xd.s.",
"d.f.y.:.H K K P h.m J k ] E 9 &Xq   X . ; ( $ 6 > O.rXsX0X0XyX7X+X|.6.<.f.f.4.3.",
"8.6.:.:.N z V U h.P B k 1 o = 9 2 5 5 2 O K.V.- 8 8 %XsXcXyXyX/.J.R Z Z 8.8.7.6.",
"[.R 3.Z p l A J P J M u C W !  ._ % O - j.O O 6 4 8 %XVXiXyX/.J.m.K g C R R G F ",
"XX].9.A l j k A J J A =.:.t.o.O.X. .( ) ) .. . .6 6 yXnX;X=XR.J.m.K i E F G f a ",
"OX.XE.6.V z C A B B C Z =.r.%.j.O.O.) ) / W W W 3 t.W.^.P.K.A.H.N.K ^ ) ,.Z.a ^ ",
"u.>XcXlX8.U J S ;.B l p i ^ [ p.V.K.>.h a ^ d d Z Z =.w.a.f.T.d.R U ] } F.H.2.| ",
"&.1XVXNXdXf.|.0.7.H x l i ^ [ K.OX#X(.n.v N z z N C Q Q :.3.f.f.6.6.>.4.F.F.,.t.",
"a.1XvXbXBXcXlXgX Xf.4.<.2.r.s.^.oX#X'.n.v l r r B k k k *.-.5.5.U 4.f.y.y.u.<.4.",
"s.g.zXzXpXeXxXhXdX~.p.p.u.s.Q.^.}.].m.K b z r y k J -.*.g s A S H ;.y.a.y.2.>.1.",
"4.f. Xg.$...%.l.:XK.k.&.d.T.s.y.<.G <.6.T J y y k B A k p s x c N *.:.e.w.3.9.4.",
">.6.0.0.' ) O.l.I.-X&.&.T.G.y.:.Z s Q k J -.Q ~ k J J 5.D v n n S A w.w.e.a.d.9.",
"S Z ;.3.u.*X-X8X;X=X*Xx.u.4.y.:.d i w w y y ~ ~ -.S 6.0.{.]._.).I T -.e.v.v.E.f.",
"S M s ] I.6X0X;X;X=X1X!.T.9.3.;.f f e w y y ~ q.;.S ;.4.{.].[.h.`.).0.a.b.b.dXd.",
"H N u ' z.8X6X;X*XP.6X5X XW.N.Y A.| h f ' #.q.e.3.=.i u ;.6.6.8.].`.[.[.dXzX3Xb.",
"V s e g l.8X2X6X*X=X^.OXOX.XD.N.H.F.Z.1.:.$.i.i.f.;.u t u A A T `.`.`.[.dXzXzX3X"
};
