/* XPM */
static char *gob_right1724041185[] = {
/* columns rows colors chars-per-pixel */
"40 40 248 2 ",
"   c #39341B",
".  c #4D2E21",
"X  c #583323",
"o  c #2C4617",
"O  c #35481A",
"+  c #375119",
"@  c #3A551B",
"#  c #3D591D",
"$  c #3E5B20",
"%  c #415A1E",
"&  c #66491E",
"*  c #4A6E19",
"=  c #4D7415",
"-  c #4A4B24",
";  c #714F31",
":  c #496422",
">  c #4D6923",
",  c #516C24",
"<  c #586826",
"1  c #4C762A",
"2  c #557926",
"3  c #53752D",
"4  c #5B772A",
"5  c #5D7C2C",
"6  c #5E6E31",
"7  c #5A7A34",
"8  c #62762D",
"9  c #70702E",
"0  c #617D37",
"q  c #6E7340",
"w  c #84593A",
"e  c #9A7145",
"r  c #A17749",
"t  c #4B870B",
"y  c #51940C",
"u  c #5A891D",
"i  c #4E9419",
"p  c #5B9717",
"a  c #5D941B",
"s  c #629E09",
"d  c #63891C",
"f  c #639D13",
"g  c #62951D",
"h  c #659A1A",
"j  c #6A9818",
"k  c #709C1C",
"l  c #5EA107",
"z  c #5CA418",
"x  c #63A205",
"c  c #64A60B",
"v  c #6BA90A",
"b  c #6CAB0C",
"n  c #71AC0E",
"m  c #6EB30F",
"M  c #78B60B",
"N  c #74BD0B",
"B  c #64A415",
"V  c #6AA515",
"C  c #65AA15",
"Z  c #6CAB15",
"A  c #64A51A",
"S  c #6BA51C",
"D  c #63AA1B",
"F  c #6DAC1C",
"G  c #74AC15",
"H  c #74A41A",
"J  c #73AC1C",
"K  c #6BB31A",
"L  c #74B214",
"P  c #7BB416",
"I  c #73BB13",
"U  c #7BBC14",
"Y  c #73B21B",
"T  c #7BB41C",
"R  c #71BB1A",
"E  c #7DBA1D",
"W  c #5B8925",
"Q  c #5E832C",
"!  c #589725",
"~  c #5A8339",
"^  c #5C9831",
"/  c #668B25",
"(  c #64832D",
")  c #6C842E",
"_  c #638B2B",
"`  c #73832E",
"'  c #639324",
"]  c #6B9C23",
"[  c #66962A",
"{  c #6C9D2B",
"}  c #759B2A",
"|  c #648636",
" . c #6B8B34",
".. c #6B8A3B",
"X. c #738D35",
"o. c #689636",
"O. c #6D9B33",
"+. c #749234",
"@. c #7A9434",
"#. c #759C33",
"$. c #7E9B36",
"%. c #77983B",
"&. c #729C3B",
"*. c #62A322",
"=. c #6CA325",
"-. c #67AB25",
";. c #6DAB22",
":. c #6DA32C",
">. c #74A524",
",. c #7AA626",
"<. c #73AB24",
"1. c #7BAC24",
"2. c #73A42B",
"3. c #74AB2A",
"4. c #7AAC2C",
"5. c #6CB024",
"6. c #75B323",
"7. c #7AB324",
"8. c #7CBA25",
"9. c #7BB32C",
"0. c #7BB828",
"q. c #6EA632",
"w. c #6BA439",
"e. c #73A433",
"r. c #79A432",
"t. c #74AB33",
"y. c #7BAC33",
"u. c #75A33B",
"i. c #7BA53C",
"p. c #75AA3C",
"a. c #7CAB3C",
"s. c #7DB233",
"d. c #78B533",
"f. c #7DB23A",
"g. c #7BC20D",
"h. c #648446",
"j. c #699647",
"k. c #759943",
"l. c #70954E",
"z. c #7AA443",
"x. c #7DAB43",
"c. c #78A748",
"v. c #78A94C",
"b. c #7EB347",
"n. c #83BD08",
"m. c #88BD16",
"M. c #84B51B",
"N. c #84BB1C",
"B. c #89BA1C",
"V. c #849A37",
"C. c #829E39",
"Z. c #84AE23",
"A. c #82AC2C",
"S. c #80B424",
"D. c #84BC25",
"F. c #83B42C",
"G. c #83BC2C",
"H. c #8AB928",
"J. c #93BA26",
"K. c #83AD33",
"L. c #85A439",
"P. c #82AC3C",
"I. c #96A33A",
"U. c #95AA3D",
"Y. c #9AAD3E",
"T. c #82B333",
"R. c #8AB633",
"E. c #85BA33",
"W. c #8DBC34",
"Q. c #82B33C",
"!. c #8BB43C",
"~. c #85BA3A",
"^. c #8BBB3C",
"/. c #98BE37",
"(. c #A1BE3E",
"). c #96C90E",
"_. c #83C31B",
"`. c #8AC31C",
"'. c #88C91A",
"]. c #91C518",
"[. c #8CC324",
"{. c #86C328",
"}. c #8BC32B",
"|. c #94C929",
" X c #8BC333",
".X c #8DC13B",
"XX c #91C633",
"oX c #96CB35",
"OX c #9DCB34",
"+X c #93C33B",
"@X c #9BCC3A",
"#X c #9CD037",
"$X c #A2CD2D",
"%X c #A3D43C",
"&X c #B78855",
"*X c #82A544",
"=X c #83AC43",
"-X c #8BAC43",
";X c #87AA4B",
":X c #90AE4A",
">X c #84B344",
",X c #8BB643",
"<X c #86BD43",
"1X c #8BBC43",
"2X c #85B24A",
"3X c #8DB54C",
"4X c #85B94E",
"5X c #8CBD4C",
"6X c #92BD44",
"7X c #99B846",
"8X c #91B54C",
"9X c #85AA52",
"0X c #8CAA53",
"qX c #93AD56",
"wX c #89B557",
"eX c #8CBB55",
"rX c #8BBA5B",
"tX c #95B956",
"yX c #92BE5C",
"uX c #A2B848",
"iX c #A1BC5A",
"pX c #8CB764",
"aX c #94BC64",
"sX c #A2BD69",
"dX c #8BC246",
"fX c #93C344",
"gX c #9BC544",
"hX c #9CCA44",
"jX c #95C34C",
"kX c #99C34D",
"lX c #95CB49",
"zX c #9CCD4A",
"xX c #9AD14A",
"cX c #8CC153",
"vX c #94C352",
"bX c #9BC453",
"nX c #9ACB57",
"mX c #95C35B",
"MX c #9ED256",
"NX c #A1CC48",
"BX c #B9C347",
"VX c #A4D155",
"CX c #A5D556",
"ZX c #97C763",
"AX c #A2C965",
"SX c #A7D664",
"DX c #A9D272",
"FX c #B1D97B",
/* pixels */
"3.~.vXSXDXZXeX3XjX+XB.m.|.[.P S g W [ o.3 1 1 W c.4XzXhX!.P.a.=X<X~.T.1.;.S A F ",
"2.>XmXDXFXDXtX,XR.H.S.M.[.`.U b p u ^ ~ ~ ~ ~ ^ e.,XlXhX6X,X!.^.fX+XE.0.<.F S F ",
"O.u.eXAXDXCXgXR.} k >.1.7.N.U M f p ! o.j.^ o.{ e.y.^.fX1X1XfX+XXX}.D.8.7.6.,.;.",
"O.k.eXAXCXVXgX!.r.] 2.4.9.7.P L C D ' O.o.c.c.c.y.s.F.R.^.fXjXjX XD.M.P T 1.3.3.",
"&.c.mXCX%X%X@X7X8X2XT.s.>Xf.0.6.I Y 5.t.p.v.pXZX5X!.S.F.+XkXmXmX^.D.Y G F <.2.t.",
"z.;XZXMX%X%XhXkXbXvXR.T.>X>Xs.7.E 8.0.b.b.rXpXaXvX^.F.1.W.jXyXeX~.7.J G H <.<.4.",
"9XwXpXaXtXgXNXNXNX@XW.E.f.f.3.6.;.t.b.b.rXpXpXpX3XP.4.4.F.~.5X>Xs.1.J P P P P 8.",
"cXcXrXwXeXkXNXNXOXoXW.T.y.2.3.2.q.p.b.rXZXZXv.pXu.#.#.r.4.F.E.E.9.<.1.P n L L N.",
"mXvX<X2XwXvXNX$X|.B.W.T.>.] 2.e.c.v.j.v.v.9X9X&./ W o.&.r.7.N.{.Q.p.e.{ h h <.T.",
"cXdXf.f.2X6XOX|.m.M.R.K.>.] O.u.p.: , 5 ) ) 3 #.d u ..o.>.H E S.y.p.u.O.u g :.Q.",
"d.y.s.y.s.F.J.].m.B.R.Q.r.{ { e.* Q V.Y.Y.BXV.9 [ / _ [ k V S J J >.r.e.g g 2.s.",
";.3.y.9.1.7.M.M.B.Z.F.K.e.#.+.( : ( @.V.uXBXBXV., } [ O.{ { { >.>.>.3.,.h ] ,.G.",
"6.6.4.7.P M.A.A.F.Z.A.A.` ) | 4 o > ( $.L.Y.(.uXV.2 i.&.&.%.z.p.p.t.1.H H H G.}.",
"0.7.9.S.M.M.K.P.!.U.K.} } X.6 8 U. .4 ( +.+.V.I.V./ t.i.z.z.z.x.x.t.,.H k } F.G.",
"8.G. X}.H.H.,X8XbXkX!.K.L.C.X.% ) ( > , ( +.e & @.d ] { z.z.=Xa.y.,.] ' d 5 o.O.",
"0.0. X X}.W.6XbXbXkXW.K.,.L.;X% + > > > ` K.R.V.uX` ] ] e.x.x.Q.F.F.2.' 2 4 7 o.",
"=.3.E.+XW.+XhX@XNX+XS.S k } *X+.o + > > 2 @.qXqXX.8 u.e.2.4.s.~..X Xs.O.Q 7 h.l.",
"a [ 4.+XfXhX#X%X@XXXD.G f d +.# V.( @ : ( @.: O O 9X=Xa.y.4.s.,XxXxX1Xa.o.h.l.v.",
"W ! 2.~.kXNX|.|.|.#XoX[.j = , U.7XU.> @ # 5 +.Y.o >X,X>XT.a.=XeXSXSXVXfXQ.x.x.2X",
"W W 2.T.6XfX[.'.'.[.|.[.n = ) Y.Y.V. .( : O o O i.P.,X,X>Xb.=X4XnXSXMXxX+X^.~.1X",
"[ q.s.s.r.2.P P L L L L J = 5 C.` @ V.L.V.2 + } k.*X;X;X2X>XP.Q.<X5XvXvXlXoX[.}.",
":.q.3.,.[ ] G M L Z v C J # +., % > _ V.U.V.+ #.;X9Xx.=X2X,X,XP.Q.>X5XlXxX@X[.}.",
"=.] h h ] >.8._.U I m K J % @.V.% : < ( , O r.L.tXtX,X!.,X8XtX8X~.~.dXcXxXxXXX+X",
"3.=.g h =.6._._.g.U L Y J W @.7X4 -       : +.Q.kXbX7X7X,X8XtXyXdX XdXdXlXlXW.1X",
"d.t.q.:.<.E U U g.N m K -.! O I.X w X X q . | | +XNX7XtX:X0XqXtXhX+XE.s.dXdXs.y.",
"s.d.t.e.J L L N N g.m z ] 3 3 $ O ; w ; ; . < | X./.uXiXqXqXtX7X@X X6.<.d.d.3.r.",
"0.6.3.=.V c Z K g.I C z 1 3 Q ( # $., : w &Xe X q l.tXsXiXuX(./.J.E S F 8.0.7.T ",
"{.E <.*.s x C 5.I K B p 3 7 ~ 5 )  .: - < r r e . l.aXsXiXuX(.].m.G h h E U J S ",
"oX[.7.F x l z C K K A =.O.7 ..h.0 2 5 | 2 5 8 6 6 L.uXNX8X-XR.J.m.G ! W ,.H j d ",
"XXXX~.0.Z c A D C D A S { 0 0 h... ._ _ Q / ( 5 ( 4.W.^.L.L.F.H.m.Y g _ ,.H j d ",
"y.,XnXlX0.K F 5.F C x s p / ) 7 k.@./ d 2 2 W h F S { 2.t.d.T.9.E Y ] :.F.H.} #.",
"&.2XZXCXdX~.{.0.7.J v x g W [ r.(.$X).n.n B v c V A ! ! :.t.d.d.6.J <.4.F.T.,.r.",
"u.4XmXnXZXmXxX@X.Xd.4.,.2.e.a.^.OX$Xm.n.v s y l z z z z *.-.-.5.6.6.t.t.t.4.>.4.",
"a.f.cXcXrXrXvXlX1X<Xa.u.y.y.Q.^.|.[.m.m.m c i i z K *.*.h h Z F F <.t.p.t.2.,.6.",
"4.d. X~.O. .&.%.=XP.%.&.s.E.f.t.<.Y <.6.R K i i z D D D f s v v C =.q.q.t.t.9.9.",
"<.<.0.9.[ _ ..k.=X*Xj.&.T.s.t.:.h f ] *.K D ^ ! z D K R n n M M Z D q.w.w.p.s.9.",
"F S F 3.y.*X;X9X:X:X*Xx.y.4.t.=.h y t t i i ! ^ -.F 9.0.H.[.'._.U T -.w.c.c.d.d.",
"F B f ] >X8XqX:X:X-X,X,XT.9.3.2.k d t t i i ^ w.-.J ;.1.}.[.{.'.'._.d.d.v.b.dXd.",
"J V p d &.9X8X:X*XP.,X6X.X XE T A.} k j [ [ j.w.3.S a g ;.7.6.R [.|.'. XdXcXcXb.",
"Z f p g z.9X3X8X-XP.^.+XfXXX`.M.H.R.S.,.{ w.u.e.d.;.a i z A D 5.g.'.g. XdXcXcX<X"
};
