/* XPM */
static char *gob_up1724041195[] = {
/* columns rows colors chars-per-pixel */
"40 40 251 2 ",
"   c #2A1B15",
".  c #3B2A1D",
"X  c #35301A",
"o  c #47351D",
"O  c #4B3926",
"+  c #663D2A",
"@  c #274014",
"#  c #2B4415",
"$  c #39421E",
"%  c #324C19",
"&  c #39551B",
"*  c #3B551C",
"=  c #3B5821",
"-  c #414A1F",
";  c #425D1E",
":  c #45641E",
">  c #4D7716",
",  c #5C4224",
"<  c #485821",
"1  c #704B33",
"2  c #4B6522",
"3  c #496824",
"4  c #546E25",
"5  c #556A29",
"6  c #4C762A",
"7  c #587725",
"8  c #54742C",
"9  c #5A7529",
"0  c #5D7A2A",
"q  c #597A36",
"w  c #637D2B",
"e  c #697B2B",
"r  c #716D32",
"t  c #637B44",
"y  c #8C5B41",
"u  c #956F43",
"i  c #4B870B",
"p  c #51940C",
"a  c #5A8A1D",
"s  c #4E9419",
"d  c #5B9717",
"f  c #5D941B",
"g  c #629E09",
"h  c #62891C",
"j  c #639D13",
"k  c #62951D",
"l  c #659A1A",
"z  c #6A9819",
"x  c #709C1C",
"c  c #5EA107",
"v  c #5CA418",
"b  c #63A205",
"n  c #64A60B",
"m  c #6BA90A",
"M  c #6CAB0C",
"N  c #71AC0E",
"B  c #6EB30F",
"V  c #78B60B",
"C  c #74BD0B",
"Z  c #64A415",
"A  c #68A515",
"S  c #65AA15",
"D  c #6BAC15",
"F  c #64A51A",
"G  c #6BA51C",
"H  c #63AA1B",
"J  c #6DAC1C",
"K  c #73AC15",
"L  c #74A41A",
"P  c #73AB1C",
"I  c #6BB31A",
"U  c #74B214",
"Y  c #7BB416",
"T  c #72BB15",
"R  c #7BBC14",
"E  c #73B21B",
"W  c #7BB41C",
"Q  c #7DBA1D",
"!  c #5C8727",
"~  c #5E9421",
"^  c #579927",
"/  c #5B8437",
"(  c #5C9831",
")  c #628D23",
"_  c #698926",
"`  c #64832D",
"'  c #69862E",
"]  c #648C2B",
"[  c #639324",
"{  c #6C9D24",
"}  c #659728",
"|  c #6A952D",
" . c #6C9D2A",
".. c #769D29",
"X. c #628434",
"o. c #638A34",
"O. c #68883A",
"+. c #6B8B3B",
"@. c #728D32",
"#. c #788E37",
"$. c #689637",
"%. c #6D9B33",
"&. c #779435",
"*. c #759D33",
"=. c #7E9B37",
"-. c #729C3B",
";. c #64A723",
":. c #6CA225",
">. c #6DAB22",
",. c #6DA32C",
"<. c #74A524",
"1. c #7AA626",
"2. c #74AB24",
"3. c #7AAC24",
"4. c #73A42B",
"5. c #74AB2A",
"6. c #7AAC2C",
"7. c #6CB024",
"8. c #75B323",
"9. c #7AB324",
"0. c #7CBA25",
"q. c #7BB32C",
"w. c #7BB828",
"e. c #64A236",
"r. c #6EA632",
"t. c #6DA43A",
"y. c #73A433",
"u. c #79A433",
"i. c #74AB33",
"p. c #7BAD33",
"a. c #75A33B",
"s. c #7CA53B",
"d. c #74A93B",
"f. c #7CAB3C",
"g. c #7DB233",
"h. c #78B533",
"j. c #7DB23A",
"k. c #7BC20D",
"l. c #678846",
"z. c #6A9449",
"x. c #749843",
"c. c #6CA041",
"v. c #7AA443",
"b. c #78A747",
"n. c #7DAB42",
"m. c #7EB349",
"M. c #82BA0A",
"N. c #88BD16",
"B. c #84B51B",
"V. c #84BB1C",
"C. c #8ABB1B",
"Z. c #839B36",
"A. c #869D38",
"S. c #84AE23",
"D. c #82AC2C",
"F. c #80B424",
"G. c #84BC25",
"H. c #83B42C",
"J. c #83BC2C",
"K. c #8AB928",
"L. c #93BA26",
"P. c #81A533",
"I. c #83AD33",
"U. c #85A33A",
"Y. c #8DA43B",
"T. c #83AC3B",
"R. c #95A63C",
"E. c #9AAD3E",
"W. c #82B333",
"Q. c #8AB633",
"!. c #86BA33",
"~. c #8DBC34",
"^. c #82B33C",
"/. c #8AB43C",
"(. c #85B939",
"). c #8BBB3C",
"_. c #97BC37",
"`. c #A2AE3F",
"'. c #A1BE3E",
"]. c #96C90E",
"[. c #83C31B",
"{. c #89C61B",
"}. c #91C518",
"|. c #8CC324",
" X c #87C429",
".X c #8BC32B",
"XX c #94C929",
"oX c #8BC234",
"OX c #8DC13B",
"+X c #91C633",
"@X c #97CA34",
"#X c #9DCB34",
"$X c #93C33B",
"%X c #9CCE3A",
"&X c #9CD037",
"*X c #A2CD2D",
"=X c #A3D43C",
"-X c #B38752",
";X c #83AB42",
":X c #8BAC43",
">X c #87A849",
",X c #90AB46",
"<X c #84B344",
"1X c #8BB543",
"2X c #86BD43",
"3X c #8BBC43",
"4X c #84B24A",
"5X c #8DB54C",
"6X c #85B94E",
"7X c #8CBD4C",
"8X c #92BE43",
"9X c #91B54C",
"0X c #96BA48",
"qX c #85AA51",
"wX c #8CAA53",
"eX c #91AC55",
"rX c #8CBB55",
"tX c #89B658",
"yX c #8CBA5B",
"uX c #95BC57",
"iX c #A5B441",
"pX c #A8B844",
"aX c #B3BE45",
"sX c #A1BC5A",
"dX c #8CB764",
"fX c #94BC64",
"gX c #A2BD69",
"hX c #8BC246",
"jX c #93C344",
"kX c #9BC444",
"lX c #9CCA43",
"zX c #95C34C",
"xX c #97C84B",
"cX c #9CCD4A",
"vX c #9AD14A",
"bX c #8CC153",
"nX c #94C352",
"mX c #9BC453",
"MX c #9ACB57",
"NX c #95C35B",
"BX c #9ED256",
"VX c #A1CC48",
"CX c #B7C146",
"ZX c #BEC648",
"AX c #A4D155",
"SX c #A5D556",
"DX c #98C863",
"FX c #A2C965",
"GX c #A7D664",
"HX c #A9D272",
"JX c #B1D97B",
/* pixels */
"5.(.nXFXHXFXtX5X0X$XL.N.|.|.Q G k ! } o.6 6 6 ! c.bXcXlX/.T.f.;X3X).g.6.J A S G ",
"4.<XDXHXJXHXuX1XQ.H.F.V.|.|.M.N d a o.( / / / ( a.2XcXcX8X/./.3XjXOX!.F.3.>.G G ",
"%.a.rXFXGXSXkXQ.<.x <.3.F.V.V B Z d ( ( z.z.$.$.4.I.).3X8X3XjX$X+X.XG.0.8.2.2.2.",
"%.x.rXBXSXAXkX/.4...4.6.q.9.R U S F } %.c.c.b.b.p.p.H.!.).jXzXxX+XG.V.Y 9.9.5.5.",
"-.v.NXAXVX=X%X0X5X4XW.6.^.j.q.8.U T 7.5.b.m.dXDX7XQ.F.H.).zXNXNX).G.P K P >.4.p.",
"v.qXDXBX=X=XkXVXMXzXQ.W.<X<Xg.9.E 0.w.m.m.tXdXgXuX).D.D.~.zXuXuX(.9.P K L 2.2.q.",
"qXrXfXfXuXkXVXVXVXlX~.W.j.j.5.8.8.i.m.m.tXm.dXdX4XT.6.6.W.Q.6X2Xq.3.Y Y Y U Y 9.",
"yXbXtXtXrXnXVXVX#X#X~.W.p.5.5.5.r.d.m.tXNXDXdXm.a.y.y.u.6.q.!.!.q.5.1.K U U U Q ",
"MXbX2X4XtXuXVX*XXXC.Q.W.<.{ ..t.t.8 e e 4 x.qX-._ ) $.-.4.9.V. X^.f.y.,.k j 2.!.",
"bXhX^.j.4X3X#XXXN.N.Q.W.<.{ %.a.* iXZXZXZX@.+.*.h a +.-.<.L R F.p.d.a.| ~ f ,.^.",
"q.i.p.g.W.H.K.}.N.C.Q.T.4.4.| 3 ,XZXZXZXZXaX9 +.| h ] $.{ G L P L 5.u.4.) [ 4.g.",
">.5.p.q.3.F.B.B.C.K.H.I.u.: & w `.ZXZXZXZXCXU.# * | | |  .:. . .<.2.6.1.k z 3.J.",
"8.8.6.9.B.B.D.D.D.D.D...4 `.Z.@.E.'.ZXZXCXE.U.9 iX; -.-.-.=.v.a.d.p.5.L L P K.oX",
"w.w.q.F.B.B.I.T.R.Q.D.P.4 5 X.@.Y.E.pXiXE.R.P.9 w 4 ] a.v.v.v.n.n.p.<.x z ..H.H.",
"0.J.oXJ.G.K.1X5XmXzX/.I.P.A.# w Z.Y.E.E.E.=.=.@ ! F.<. .v.n.n.;Xp.3.<.[ 0 a | %.",
"w.w.oX+XL.oX8XmXmXxX).D.P.P.5 2 @.&.=.Z.&.@.` # ` I.{ { y.n.n.j.H.q.4._ 7 8 / z.",
">.4.!.$X~.$X%X%XVX$XF.L x ; 9 % 4 ` ` ' ' 0 & &._.= a.*.4.6.g.(.OXOXg.*./ q l.z.",
"f } W.).jXlX%X%X#X+XG.K > A.Z.0 & % % % % % 0 R.iXaX9 y.p.D.g.3XvXvX3Xf.$.+.z.b.",
"! ~ <.W.mXcX#XXX#XXX#XG.7 '.pX@.&.0 0 0 0 ' ' ' e A.E.4 ^.f.;XrXGXSXBXzXf.f.m.4X",
"! ! 4.W.8XxX|.}.{. XXXS.4 CXZ.7 =.=.` 9 &.=.` % 9 2 Y.' 3 n.;X6XDXSXBXcX$X)./.).",
"( y.g.q.y.4.Y U T U T # &.&.4 ; 9 ' ` 0 ` X.; 9 v.# R.e R.o.T.^.2X7XnXvXvX@X XL.",
";.i.6.1.{ { K V U D m # Z.% L : 2 9 ` ] ' 2 % &.>XwXX y # o ;X/.j.<XhXnXvX&X|. X",
":.:.l k { 4.0.[.R U > aXA.7 !.T.  X < - $ . 5 U.uXuX#.r u 1 1 r e (.hXbXBXvX+X$X",
"5.:.k k :.8.[.{.k.k.D * A.[ +.< 4 . O 1 o X ; +.>XmX0X,XR.,X+ -X-X, f.2XxXxX~.).",
"h.i.r.,.2.W R R k.C B I > ! 8 * =.< o .   @.< e #.kX0X9XwXeXeXu -Xu + W.2X2Xh.f.",
"h.h.i.y.P T U C k.C I v ^ 8 8 % Y.5 ; ; % U.3 O.+.&.pXsXeXeX9X,XA..._ 2.!.h.6.4.",
"w.0.5.:.A n D I k.T S v ! 8 6 Z.`.9 ! / = Y.pX* t t gXgXsXpX'._.L.Q G G 0. X8.2.",
"G.Q >.:.n c S J T B F d } / q 8 3 7 ! o.l.6 5 q q z.fXgXsX'.'.L.C.U k l E Q K L ",
"@X|.9.S g c Z H I D H :.,.X.O.l.o.` X.] X.o.X.X.q I.pXVX9X:XL.L.N.U f ~ 3.L z h ",
"$X+X!.w.D n F H H S F G :.u.+.+.+.+.] ' ! ! ` } ..6.).).U.s.Q.F.V.U [ ] 1.L z _ ",
"p.2XBXxXw.I J J J S b g k ) | s._.#XC.M.L A K U G G  .r.i.h.j.q.Q P { 4.H.K.1.| ",
"-.4XDXGXhXoXw.w.w.L m g f ~ | s._.*X].M.N Z n n D l ~ ^ ,.i.h.h.8.E 4.5.H.H.1.u.",
"a.4XNXDXDXNXvX%XOXh.6.5.4.y.f.).%X*X}.M.M b p c v v v v ;.;.7.7.8.8.i.i.i.6.5.1.",
"f.j.hXnXyXyXnXxXhX<Xs.s.p.f.^.).L.|.N.R B n s s v I ;.v l A F J J 2.i.d.i.4.5.3.",
"6.h.OXj.%.o.-.A./.v.-.-.g.!.p.i.2.P 2.2.T I ^ s v S H H j g m m A ;.r.r.r.i.g.q.",
"2.8.w.w.} ` +.x.;X;Xx.$.W.g.i.,.G Z d ;.I ;.^ ^ v S E 7.N N V V D S r.t.t.i.g.h.",
"J F G 5.I.;XqXqX,X:X>Xs.p.6.i.,.l d i i s ^ ( ( ;.I 8.q. X|.{.[.R W 7.c.b.m.h.w.",
"J F j { <X5X5XeX5X:X4X1XW.q.5.<.z h i i i s ( e.>.2.>.9.J.XX X[.[. Xw.h.m.m.hXh.",
"P A d h -.qX9X,X:X;X8X8X).oXQ Q D...x z ~ $.e.t.5.G f k 2.8.8.0.{.{.{.oX6XbX6Xm.",
"K j d k v.qX5X9X:XU.).jX$X+XV.V.L.H.F.1.4.e.a.a.h.:.f s d H H I [.{.{.0.hXbXbX2X"
};
