/* XPM */
static char *overlay_image__1_1723963923[] = {
/* columns rows colors chars-per-pixel */
"40 40 232 2 ",
"   c #0A282C",
".  c #082A34",
"X  c #0B323C",
"o  c #143934",
"O  c #272C24",
"+  c #4A311B",
"@  c #442E24",
"#  c #583625",
"$  c #32542F",
"%  c #3B4E31",
"&  c #3D653B",
"*  c #4F551C",
"=  c #474C2E",
"-  c #594D2B",
";  c #69462A",
":  c #754E2D",
">  c #775B30",
",  c #4F752F",
"<  c #0F3742",
"1  c #133D48",
"2  c #15414C",
"3  c #174550",
"4  c #184752",
"5  c #1A4A55",
"6  c #1B4F59",
"7  c #1D535B",
"8  c #1D585A",
"9  c #21595A",
"0  c #3E7044",
"q  c #26675C",
"w  c #1F5860",
"e  c #215B63",
"r  c #26676C",
"t  c #2A6D72",
"y  c #2C7276",
"u  c #2E7579",
"i  c #2F7A7A",
"p  c #307D7E",
"a  c #527A44",
"s  c #856032",
"d  c #9A763E",
"f  c #A07D3E",
"g  c #4B870B",
"h  c #51940C",
"j  c #598B1C",
"k  c #4E9419",
"l  c #5B9717",
"z  c #5D941B",
"x  c #629E09",
"c  c #648A19",
"v  c #639D13",
"b  c #62951D",
"n  c #699719",
"m  c #659A1A",
"M  c #709C1C",
"N  c #5EA107",
"B  c #5CA418",
"V  c #65A406",
"C  c #64A60B",
"Z  c #6CAB0C",
"A  c #70B00F",
"S  c #77B80B",
"D  c #64A416",
"F  c #68A515",
"G  c #65AA15",
"H  c #6CAB15",
"J  c #64A51A",
"K  c #6BA51C",
"L  c #63AA1B",
"P  c #6DAC1C",
"I  c #74AD15",
"U  c #75A51A",
"Y  c #73AC1C",
"T  c #6BB31A",
"R  c #74B214",
"E  c #7BB416",
"W  c #72BB15",
"Q  c #7BBC14",
"!  c #73B21B",
"~  c #7BB41C",
"^  c #7DBA1D",
"/  c #5B8826",
"(  c #589725",
")  c #5A8339",
"_  c #5C9834",
"`  c #638C27",
"'  c #708A2A",
"]  c #639324",
"[  c #6B9D23",
"{  c #659729",
"}  c #6C9D2A",
"|  c #749929",
" . c #668D38",
".. c #6D9B33",
"X. c #689638",
"o. c #759F34",
"O. c #719B3A",
"+. c #64A723",
"@. c #6CA225",
"#. c #6DAB22",
"$. c #6CA32C",
"%. c #74A624",
"&. c #7AA626",
"*. c #74AB24",
"=. c #7BAC24",
"-. c #73A42B",
";. c #75AC2A",
":. c #7AAC2C",
">. c #6CB024",
",. c #75B323",
"<. c #7AB324",
"1. c #7DBA25",
"2. c #7BB22B",
"3. c #7CB82B",
"4. c #6DA532",
"5. c #6BA439",
"6. c #73A533",
"7. c #74AA33",
"8. c #7BAC33",
"9. c #75A33B",
"0. c #7AA638",
"q. c #7CAB3C",
"w. c #7DB233",
"e. c #78B533",
"r. c #7EB23A",
"t. c #7BC20D",
"y. c #31807E",
"u. c #35927F",
"i. c #4E834A",
"p. c #55884A",
"a. c #568C4D",
"s. c #5B9145",
"d. c #648946",
"f. c #669748",
"g. c #759B41",
"h. c #6C9251",
"j. c #78A646",
"k. c #7DAB43",
"l. c #74A74D",
"z. c #81BC09",
"x. c #86BA1A",
"c. c #84BB1C",
"v. c #82AD29",
"b. c #83BC25",
"n. c #88B827",
"m. c #83B42C",
"M. c #83BC2C",
"N. c #93BA26",
"B. c #82AA39",
"V. c #82AB3B",
"C. c #82B433",
"Z. c #8AB635",
"A. c #85BA33",
"S. c #8DBC34",
"D. c #82B33C",
"F. c #8BB53D",
"G. c #85BA3A",
"H. c #8BBB3C",
"J. c #99BE37",
"K. c #A1BE3E",
"L. c #83C31B",
"P. c #89C61B",
"I. c #91C518",
"U. c #8CC324",
"Y. c #86C328",
"T. c #8BC32B",
"R. c #94C929",
"E. c #8BC333",
"W. c #8DC13B",
"Q. c #91C533",
"!. c #96CA36",
"~. c #9DCB34",
"^. c #93C33B",
"/. c #9BCC3A",
"(. c #9CD037",
"). c #A0CC2A",
"_. c #A3D43C",
"`. c #B18D48",
"'. c #82A645",
"]. c #83AC42",
"[. c #88AB48",
"{. c #90AE4A",
"}. c #84B344",
"|. c #8BB543",
" X c #86BC44",
".X c #8BBC43",
"XX c #84B249",
"oX c #8DB54C",
"OX c #8CBD4C",
"+X c #92BD44",
"@X c #95B849",
"#X c #87AA51",
"$X c #92AE55",
"%X c #8CBB55",
"&X c #8BB758",
"*X c #95BA57",
"=X c #A1BC56",
"-X c #96BA62",
";X c #A2BD69",
":X c #8BC246",
">X c #93C344",
",X c #9BC544",
"<X c #9BCA43",
"1X c #95C44C",
"2X c #97C84B",
"3X c #9CCD4A",
"4X c #9AD14A",
"5X c #8CC153",
"6X c #94C352",
"7X c #9AC956",
"8X c #95C35B",
"9X c #9ED256",
"0X c #A1CC48",
"qX c #A5D556",
"wX c #99CA61",
"eX c #A2C965",
"rX c #A7D664",
"tX c #ABD475",
"yX c #338381",
"uX c #368B86",
"iX c #378F88",
"pX c #399187",
"aX c #379089",
"sX c #39948A",
"dX c #3C9B8C",
"fX c #3DA58E",
"gX c #3FAB91",
"hX c #40A38F",
"jX c #42A691",
"kX c #42AA91",
"lX c #42B393",
"zX c #44BC95",
/* pixels */
";.G.7XwXtXeX&XoX1X^.N.x.U.b.~ K b / X. ., , , / j.OX3X3XF.q.B.].H.H.w.,.#.K J K ",
"-.].*XtXtXtX6X|.Z.m.c.c.U.P.z.Z l j _ _ ) ) / / 9. X<X3X+XF.F.H.:X^.A.m.*.P K P ",
"..9.&XeXrXrX,XV.&.M %.=.n.c.S S l z / X.X.f.{ } -.8.H.+X.X.X>X^.Q.T.b.1.<.,.%.$.",
"..j.&X9XqXqX,XZ.-.| -.:.:.<.~ R H D +.{ f.j.j.q.8.w.m.A.H.>X1X1XE.b.c.E ~ =.;.<.",
"O.j.8X9X_._./.@XoX[.C.:.}.r.3.,.W $ t pXzXfXdX9  .H.n.m.^.1X8X8XH.b.! U %.#.-.8.",
"j.#XwX7X_._.0X0X7X6XZ.C.}.k.e.3.7 i iXzXkXzXzXuX7 F.=.v.S.1X*X%XG.<.I I U Y ;.:.",
"XX&X-X-X*X,X0X0X0X/.S.C.r.w.:.$ p uXpXgXlXkXkXdXdX1 :.:.C.G.OX}.w.=.I E R Q ! c.",
"8X&X&X&X*X*X0X/.~.!.Q.C.e.$ { 8 y.uXpXsXkXlXkXuXyXu 6.6.:.m.A.A.2.:.=.I I R R ^ ",
"8X5X XXX$X6X0X(.I.N.A.1 p sXp y.e p yXu sXaXjXuXe e   9.-.<.c.b.r.k.6.} m m *.C.",
":X:Xr.r.}.OX~.R.x.$ p u.lXzXjXkXu 7 r e yXu aXt t 6   O.%.U ^ b.w.0.9.{ / z $.G.",
"e.8.r.w.8.m.N.I.x.r p zXlXlXkXdXyXt r t uXr u w e pXq { [ U K U U ;.7.-.b z -.w.",
"P ;.7.2.=.~ b.x.j yXu dXjXzXlXsXyXt 3 e u r e y fXzXsX8 } } @.@.%.%.:.-.n [ :.m.",
",.*.;.<.x.E v.v.X y.u iXsXlXjXuXuXp 6 2 5 w t y.kXkXkXfXX O.0.0.q.7.&.U U =.n.S.",
"1.3.2.1.x.x.V.'.e t yXyXjXjXiXdXyXy 7 r r p e u p uXkXaX4 j.j.].k.8.%.U M M m.M.",
"1.Y.E.S.n.n.F.@X2 4 iXt p u iXy uX4 y uXkXzXsXe u y aXu 6 k.k.].8.%.| n , c ' $.",
",.3.E.W.S.S.+X@X. 9 u 9 t e t u e aXhXlXzXkXkXp w y p 2 . k.k.q.m.2.&.| , , ) X.",
"@.-.A.^.J.^././.}.2 2 8 e e y 5 7 t yXsXdXsXyXyX7 6 3 1 { 8.8.G.E.W.w.../ , d.h.",
"b { C.S.>X<X/._./.< 3 3 w 7 w 6 8 t u p hXiXu e 4 5   O.:.:.w.|.2X4X:Xq.X.d.h.l.",
"/ ( -.Z.2X3XR.R.R.(.o 2 2 3 2 t hXjXp uXu yXt u e  .@X|.D.r.].%XrXrX9X>XV.q.'.XX",
"/ / -.C.OX>XU.P.P.U.R.Y.O O 5 u dXyXt 6 t y 7 6 < '.|.|.}.k.}.XX7XrXqX4X,XH.G.:X",
"{ 4.w.2.6.-.I E W R R R I @ w u uXt r 6 6 t 3 1 g.j.'.[.XX[.D.D. X:X6X2X4X!.U.T.",
"$.7.:.;.} [ I S A H Z G ! + 2 8 e 4 e 1 3 4 1 # '.#X'.].}.|.|.V.r.}.5X2X4X~.U.T.",
"@.[ m m } %.1.L.Q R R H ! 3.# 2 3 5 1 # % O ' ; $X*X@XF.+X@X*XoXG.G.:X5X4X4XQ.E.",
";.@.b b @.2.t.P.t.W W ! P ;.+ = X @ * ; ' : | d 7X7X@X|.F.{.-X*X:XW.W.:X6X2XW..X",
"e.7.4.$.,.~ Q t.t.t.A T _ a # ; p.; * s ' d a d J./.@X@X{.$X$X*X<X!.A.w.:X Xw.8.",
"e.2.7.7.%.R R W t.S G G p.l.$ p.0 `.* `.6.`., > i.a =X*X$X$X=X@X/.E.,.*.e.e.:.-.",
"3.,.-.@.F C H ! W W G B s.i.a.i.$ > - `.0.`.h.& h.p.-X;X=X=XK.J.N.^ K K 1.1.<.*.",
"Y.^ ;.J x V L T W W D l +.@.a.a.f.0 O `.& d i.a.f.a.-X;X=XK.J.N.x.R m D ^ ^ Y U ",
"~.U.<.L V N D J T T J @.$.7.k.j.a.i.% f h.= & 0 O.B.@X0X{.V.N.N.x.R b / =.U n c ",
"Q.Q.A.3.G C D L L H F J [ -.V.F.a.i.i.% f.i.l.i.%.v.J.H.V.V.B.N.x.! ] ` &.U c ` ",
"8. X7X2X1.T T #.#.G V x b ` ' q.^.a.a.f.0 { p.! U K @.4.6.e.B.m.^ ! [ } m.n.&.| ",
"O.XXwXrX:XE.3.3.<.Y V x v / { V./.f.s.4.s.{ C C F D ( ( 4.7.e.3.,.Y ;.:.m.Z.&.6.",
"9.XX8XwXwX8X4X<XW.e.:.%.-.9.q.S.~.).I.z.I N h N B B B B +.+.>.#.,.3.7.7.7.:.%.:.",
"q.r.:X5X&X&X6X1X:XG.k.0.8.q.D.H.N.U.c.z.A C k k B T B +.m v H P P #.e.6.7.7.%.<.",
"7.3.W.G... .O.j.].V.O.X.w.A.q.7.*.! *.Y W T ( k B L L L x v Z Z D +.4.5.7.7.3.e.",
"*.%.3.3.` '  .g.].'.g.O.C.C.7.$.D z [ +.T +.( ( B T T >.U Z S S H #.$.5.5.7.w.e.",
"P J #.%.q.].'.#X{.[.'.0.8.;.7.$.m z g g k k ( _ +.T ;.3.n.U.P.t.Q ! >.5.l.j.e.3.",
"Y D v [ D.oX$X$X{.[.oXF.C.2.;.-.M c g g k k _ 5.#.P #.<.U.R.P.P.P.L.e.e.l.k.:Xe.",
"I D l c O.#X{.{.V.V.OX+XS.E.^ ~ v.| M n ( X.O.5.;.K z m #.,.,.1.U.P.P.E.:X5X5Xk.",
"P D l b j.[.oX@X].].F.^.<XE.U.x.n.m.v.=.-...9.0.e.$.z k l L L >.P.P.t.E.:X5X5X:X"
};
