/* XPM */
static char *output_onlinepngtools__1_1723450828[] = {
/* columns rows colors chars-per-pixel */
"40 40 194 2 ",
"   c #102F2F",
".  c #073132",
"X  c #163C34",
"o  c #153D3B",
"O  c #1B3B39",
"+  c #35342B",
"@  c #263E3D",
"#  c #333B36",
"$  c #4B382F",
"%  c #5E3725",
"&  c #643F27",
"*  c #0F443B",
"=  c #14443E",
"-  c #19423F",
";  c #14483E",
":  c #3B443B",
">  c #5C452A",
",  c #4D5E30",
"<  c #5C5932",
"1  c #654228",
"2  c #654428",
"3  c #6A4329",
"4  c #734C2C",
"5  c #76522E",
"6  c #724D33",
"7  c #685032",
"8  c #695735",
"9  c #725431",
"0  c #775E35",
"q  c #7B5834",
"w  c #4D6838",
"e  c #566337",
"r  c #5B6C3B",
"t  c #56743B",
"y  c #796737",
"u  c #69743D",
"i  c #7D713C",
"p  c #203F41",
"a  c #194641",
"s  c #164B43",
"d  c #1B4D45",
"f  c #155344",
"g  c #195346",
"h  c #175F46",
"j  c #1A5B47",
"k  c #1A5448",
"l  c #1B5C49",
"z  c #254A46",
"x  c #344844",
"c  c #354C4D",
"v  c #23554A",
"b  c #235B4C",
"n  c #285A49",
"m  c #34514D",
"M  c #3B514C",
"N  c #2D5D51",
"B  c #365351",
"V  c #3B5756",
"C  c #1C6147",
"Z  c #1A6746",
"A  c #1C6349",
"S  c #1E6B49",
"D  c #1F7149",
"F  c #1E7848",
"G  c #24644A",
"H  c #28664B",
"J  c #216C4A",
"K  c #306149",
"L  c #22744A",
"P  c #29744B",
"I  c #247C4A",
"U  c #2D6650",
"Y  c #336453",
"T  c #376858",
"R  c #2F7850",
"E  c #3D7956",
"W  c #49514D",
"Q  c #455955",
"!  c #7B5B43",
"~  c #705A4E",
"^  c #547B44",
"/  c #587C46",
"(  c #42625D",
")  c #4C685E",
"_  c #50635C",
"`  c #477A5E",
"'  c #62694E",
"]  c #716751",
"[  c #476560",
"{  c #4C6362",
"}  c #4A6B65",
"|  c #5A6B66",
" . c #4A7466",
".. c #567769",
"X. c #5C746B",
"o. c #5D7672",
"O. c #6D766A",
"+. c #6B7B75",
"@. c #825E34",
"#. c #846237",
"$. c #8A6637",
"%. c #956F38",
"&. c #866747",
"*. c #8C6E4A",
"=. c #977548",
"-. c #977C59",
";. c #837A61",
":. c #238C47",
">. c #27834A",
",. c #28834B",
"<. c #2A8B4B",
"1. c #32834D",
"2. c #2D934B",
"3. c #3B9054",
"4. c #578348",
"5. c #548A4C",
"6. c #47875D",
"7. c #5A8C53",
"8. c #5B9253",
"9. c #62854F",
"0. c #688350",
"q. c #639359",
"w. c #5A836A",
"e. c #668B66",
"r. c #689968",
"t. c #739E6E",
"y. c #678777",
"u. c #64837A",
"i. c #768E78",
"p. c #59A263",
"a. c #7CA377",
"s. c #7DA47B",
"d. c #9D805A",
"f. c #9F8465",
"g. c #928A7A",
"h. c #859178",
"j. c #A3906C",
"k. c #87A978",
"l. c #6E8681",
"z. c #768F87",
"x. c #7B908A",
"c. c #82948C",
"v. c #8C968E",
"b. c #9F9A88",
"n. c #889B95",
"m. c #8C9E99",
"M. c #969D93",
"N. c #A29E8C",
"B. c #A29C93",
"V. c #8DAD8A",
"C. c #90AE8E",
"Z. c #9AA296",
"A. c #94AF91",
"S. c #A8A898",
"D. c #B0BD9E",
"F. c #9AAAA3",
"G. c #A1AFA5",
"H. c #A4B3AD",
"J. c #ABB5A8",
"K. c #B6B6A8",
"L. c #BEBCAB",
"P. c #A9B7B1",
"I. c #AEBBB5",
"U. c #BBBEB1",
"Y. c #B2BEB8",
"T. c #C0AF88",
"R. c #C3BCA4",
"E. c #C2BFB2",
"W. c #B7C5AB",
"Q. c #BCC1AD",
"!. c #B4C3B7",
"~. c #BEC1B3",
"^. c #B5C2BB",
"/. c #BBC6BE",
"(. c #BEC9BE",
"). c #D1C19B",
"_. c #C5C0AC",
"`. c #D0C8AD",
"'. c #C6C9B5",
"]. c #C5C8B9",
"[. c #D0CDB3",
"{. c #CDD3BE",
"}. c #D3D5BA",
"|. c #D8DCBA",
" X c #BBC7C0",
".X c #BCC8C1",
"XX c #C0CBC5",
"oX c #CCD3C0",
"OX c #C5D0C8",
"+X c #D7DBC3",
"@X c #DDE1C3",
"#X c #E7E6C2",
"$X c #E8EBE9",
"%X c gray99",
/* pixels */
"%X$XXX.X.X.X.X.X.X.X.X.X.X.X.X.X.X/..X.X.X.X.X.X.X.X.X.X.X.X.X.X.X.X.X.X.X.X.X.X",
"%X$X.X.X.X.X.X.X.X.X.X.X.X.X.X.X.X.X.X.X.X.X.X.X.X.X.X.X.X.X.X.X.X.X.X.X.X.X.X.X",
"%X$XXX.X.X.X.X.X.X.X.X.X.X.X.X.X.X.X.X.X.X.X.X.X.X.X.X.X.X.X.X.X.X.X.X.X.X.X.X.X",
"%X$XXX.X.X.X.X.X.X.X.X.X.X.X.X.X.X.X.X.XY.P.^..X.X.X.X.X.X.X.X.X.X.X.X.X.X.X.X.X",
"%X$XXX.X.X.X.X.X.X.X.X.X.X.X.X.X.X.XP.x.y. .u.I.XX.X.X^..X.X.X.X.X.X.X.X.X.X X.X",
"%X$XXX.X.X.X.X.X.X.X.X.X.X.X.X.X.XH...H I I Z o.Y.H.n.o.m. X.X.X.X.X.X.X.X.X.X.X",
"%X$XXX.X.X.X.X.X.X.X.X.XOXY..XXX^.u.J I <.,.S k } T U J U u.H..X.X.X.X.X.X.X.X.X",
"%X$X.X.X.X.X.X.X.X.X.XH.x.( y.m.[ v S L L A l d l ,.,.I D N F..X^..X.X X.X.X.X.X",
"%X$XXX.X.X.X.X.X.X.X.Xl.= j C v f d g j f j j f G <.<.>.A N +.H.XX.X.X.X.X.X.X.X",
"%X$X.X.X.X.X.X.X.X.Xx.v g g C C A f k C J >.L J J A L L A l s V H..X.X.X.X.X.X.X",
"%X$XXX.X.X.X.X.X.X/.u.v j J j g k f Z L ,.2.<.I L l C I S A l s [ .X.X.X.X.X.X.X",
"%X$XXX.X.X.X.X.X.Xm.Y L ,.<.I J k C I I 2.<.2.<.L A d l l l S A s o..X.X.X.X.X.X",
"%X$XXX.X.X.X.X.X^.z.P ,.2.2.<.L C A S I <.2.>.>.I A g A S A C C * { .X.X.X.X.X.X",
"%X$XXX.X.X.X.X.XF.T E 3.<.<.I L C l l S I <.D Z S A S I <.I J l s B I..X.X.X.XXX",
"%X$XXX.X.X.X.X.XH. ...6.I I C C g d A I I I D C A L I <.2.2.<.D s V I..X/..X.XXX",
"%X$XXX.X.X.X.X.X^.m...G J h j j j k S <.2.,.I C j L D >.<.<.1.P s { .X.X.X.X.XI.",
"%X$X.X.X X.X.X.X.XK...) v l >.I J l S >.<.<.L S j h L L I I r.` s m ^..X.X.X.Xm.",
"%X$XOX.X.X.X.X.X(.~.Z.| z L :.p.r.h J F L D Z I J C A S S L E U . { OX.X.X.XXXF.",
"%X$X.X.X.X.X X.X/.].M.c d S F 6.6.G G S D D n J J j l g K n f o Q Z..X.X.X.X.X^.",
"%X$X.X.X.X.X.X.X/.U.K.| a l l h H y.b j D R h.G h g g b s.y.o Q L.@X X.X.X.X.X.X",
"%X$X.X.X.X X.X.X(.'.E.c.x d j s w.D.N ; k n ) d g g s z i.o.x S.|..X.X.X.X.X.X.X",
"%X$XXX.X.X.X.X.XXX#X[.L.} f k s d M @ = d a o o k - o p m Q M.`.@X.X.X.X.X.X.X.X",
"%X$XXX.X.X.X.X.X.XoXL.v.Y J L Z f M W @ o x ' # O p c X.F.J.L.U..X.X.X.X.X.X.X.X",
"%X$XXX.X.X X.X X X.XK._ d L I L j ( O.: # ;.).! + : ) } G.+X'.L..X.X.X.X.X.X X.X",
"%X$XXX.X.X.X.X.X.X.X!.+.- G J G v Q v.] 6 -.f.&.+ v J l o.W.'.L..X.X.X.X.X.X X^.",
"%X$XXX.X.X.X.X.X.X.X{.J.Q = ; g O | N.T.-.&.&.-.X C S S N n.~.U. X.X.X X.X.X X!.",
"%X$XXX.X.X.X.X.X.X.X.X].S.M W - : 7 *.-.-.f.@.] O d l j a l.!.U. X X.X.X.X X.XP.",
"%X$X.X.X.X.X.X.X.X.X.XoX#XS.Q.G.g.@.$.3 6 =.! S._   a a Q m.].'..X.X.X.X.X.X.X.X",
"%X$XXX.X.X.X.X.X.X.X.X.X{.R.+XoXg.%.q & 5 *.S.b.9 $ + +..X.XOXoX.X.X.X X.X X X X",
"%X$XXX.X.X.X.X.X.X.X.X.X^.L..XJ.*.%.4 4 4 #.! 3 6 ~ B.E..X.X.X.X.X X.X.X.X.X.X X",
"%X$XXX.X.X.X.X.X.X.X.X.X(._.!.Z.#.$.3 4 2 d.*.' x.!.].U..X.X.X.X.X.X.X X.X.X.X X",
"%X$X.X.X.X.X.X.X.X.X.X/.}.|.e.9.7 q & 1 5 ).j.r 0.k.W.}.XX.X.X.X.X.X.X.X.X.X.X.X",
"%X$X.X.X.X.X.X.X.X.X.X.X!.k.t u 9 4 1 % 4 =.4 5 y t k.}..X.X.X.X.X.X.X.X.X X.X.X",
"%X$XXX.X.X.X.X.X.X.X.X.XC.5.^ u 9 3 & % 1 4 2 9 @.r 7.A./..X.X.X.X.X.X.X.X.X.X.X",
"%X$XXX.X.X.X.X.X.X.X.X.XV.5.^ i y < 1 9 3 4 9 r 0 e 5.k./..X.X.X.X.X.X.X.X.X.X.X",
"%X$XXX.X.X.X.X.X.X.X.X.XC.5.< u ^ / 8 #.2 < y w t r q.F..X.X.X.X.X.X.X.X.X X.X.X",
"%X$XXX.X.X.X.X.X.X.X.X.X!.a.t ^ 5.^ < r / 4.> e 8.9.t.!..X(. X.X.X.X.X.X.X.X.X.X",
"%X$XXX.X.X.X.X.X.X.X.X/..X^.s.r.r.4.w ^ 5.5., t q.V.!..X.X.X.X.X.X.X.X/..X.X X.X",
"%X$XXX.X.X.X.X.X.X.X.X.X.X.XXX!.P.V.k.a.a.q.s.V.!..X.X.X.X X.X.X.X.X.X.X.X.X.X.X",
"%X$XXX.X.X.X.X.X.X.X.X.X.X.X.X.X.X.X.XXX!.I.XXXX.X(..X.X.X.X.X.X.X.X.X.X.X.X.X.X"
};
